<?xml version="1.0" encoding="UTF-8"?><svg id="_レイヤー_2" xmlns="http://www.w3.org/2000/svg" viewBox="0 0 291.3 163.87"><defs><style>.cls-1{fill:#f8b200;}.cls-2{fill:#0053a5;}.cls-3{fill:#e6e2e8;}.cls-4{fill:#cd66a3;}</style></defs><g id="_1"><path class="cls-2" d="m42.6,0c-11.66,4.64-20.08,16.49-20.61,29.02-.53,12.53,6.85,25.05,18.08,30.67,11.99,6,27.07,4.43,38.11,12.03,7.93,5.46,12.26,14.61,17.23,22.85,16.31,27.06,61.97,68.51,91.51,63.28,4.11-.73,20.53-.82,24.4-2.34,10.08-3.96,8.13-45.44-7.01-53.13-4.92-2.5-6.11-10.37-3.73-15.34,3.25-6.8,15.21-8.14,15.06-15.68-15.88-6.21-23.76-23.58-35.24-36.19C156.55,8.97,117.78,4.07,82.48.82"/><path class="cls-3" d="m133.79,80.6c-.5.02-1-.05-1.5-.15-.07.45-.14.89-.21,1.34-.13.83-1.46.53-1.29-.3.09-.43.18-.86.27-1.28-.47-.1-.94-.2-1.42-.24-.74-.07-.81-1.08-.05-1.17.57-.07,1.18-.13,1.79-.15.15-.73.31-1.45.46-2.18.14-.65,1.1-.41,1,.24-.1.66-.2,1.32-.3,1.98.56.06,1.1.16,1.58.41.72.37.42,1.48-.36,1.51Zm-8.36-1.81c-.48-.25-1.03-.35-1.58-.41.1-.66.2-1.32.3-1.98.1-.64-.86-.89-1-.24-.15.73-.31,1.45-.46,2.18-.61.02-1.23.08-1.79.15-.76.09-.7,1.11.04,1.17.47.04.94.14,1.42.24-.09.43-.18.86-.27,1.28-.18.84,1.16,1.14,1.29.3.07-.45.14-.89.21-1.34.5.09,1,.17,1.5.15.78-.03,1.08-1.15.36-1.51Zm17.23.84c-.48-.25-1.03-.35-1.58-.41.1-.66.2-1.32.3-1.98.1-.64-.86-.89-1-.24-.15.73-.31,1.45-.46,2.18-.61.02-1.23.08-1.79.15-.76.09-.7,1.11.05,1.17.47.04.94.14,1.42.24-.09.43-.18.86-.27,1.28-.18.84,1.16,1.14,1.29.3.07-.45.14-.89.2-1.34.5.09,1,.17,1.5.15.78-.03,1.08-1.15.36-1.51Zm10.11.63c-.48-.25-1.03-.35-1.58-.41.1-.66.2-1.32.3-1.98.1-.64-.86-.89-1-.24-.15.73-.31,1.45-.46,2.18-.61.02-1.23.08-1.79.15-.76.09-.7,1.11.04,1.17.47.04.94.14,1.42.24-.09.43-.18.86-.27,1.28-.18.84,1.16,1.14,1.29.3.07-.45.14-.89.21-1.34.5.09,1,.17,1.5.15.78-.03,1.08-1.15.36-1.51Zm-15.86,10.81c-.5.02-1-.05-1.5-.15-.07.45-.14.89-.2,1.34-.13.83-1.46.53-1.29-.3.09-.43.18-.86.27-1.28-.47-.1-.94-.2-1.42-.24-.74-.07-.81-1.08-.04-1.17.57-.07,1.18-.13,1.79-.15.15-.73.31-1.45.46-2.18.14-.65,1.1-.41,1,.24-.1.66-.2,1.32-.3,1.98.56.06,1.1.16,1.58.41.72.37.42,1.48-.36,1.51Zm-8.36-1.81c-.48-.25-1.03-.35-1.58-.41.1-.66.2-1.32.3-1.98.1-.64-.86-.89-1-.24-.15.73-.31,1.45-.46,2.18-.61.02-1.23.08-1.79.15-.76.09-.7,1.11.05,1.17.47.04.94.14,1.42.24-.09.43-.18.86-.27,1.28-.18.84,1.16,1.14,1.29.3.07-.45.14-.89.21-1.34.5.09,1,.17,1.5.15.78-.03,1.08-1.15.36-1.51Zm17.23.84c-.48-.25-1.03-.35-1.58-.41.1-.66.2-1.32.3-1.98.1-.64-.86-.89-1-.24-.15.73-.31,1.45-.46,2.18-.61.02-1.23.08-1.79.15-.76.09-.7,1.11.05,1.17.47.04.94.14,1.42.24-.09.43-.18.86-.27,1.28-.18.84,1.16,1.14,1.29.3.07-.45.14-.89.21-1.34.5.09,1,.17,1.5.15.78-.03,1.08-1.15.36-1.51Zm10.11.63c-.48-.25-1.03-.35-1.58-.41.1-.66.2-1.32.3-1.98.1-.64-.86-.89-1-.24-.15.73-.31,1.45-.46,2.18-.61.02-1.23.08-1.79.15-.76.09-.7,1.11.04,1.17.47.04.94.14,1.42.24-.09.43-.18.86-.27,1.28-.18.84,1.16,1.14,1.29.3.07-.45.14-.89.2-1.34.5.09,1,.17,1.5.15.78-.03,1.08-1.15.36-1.51Zm-24.77,8.85c-.5.02-1-.05-1.5-.15-.07.45-.14.89-.2,1.34-.13.83-1.46.53-1.29-.3.09-.43.18-.86.27-1.28-.47-.1-.94-.2-1.42-.24-.74-.07-.81-1.08-.04-1.17.57-.07,1.18-.13,1.79-.15.15-.73.31-1.45.46-2.18.14-.65,1.1-.41,1,.24-.1.66-.2,1.32-.3,1.98.56.06,1.1.16,1.58.41.72.37.42,1.48-.36,1.51Zm-8.37-1.81c-.48-.25-1.03-.35-1.58-.41.1-.66.2-1.32.3-1.98.1-.64-.86-.89-1-.24-.15.73-.31,1.45-.46,2.18-.61.02-1.23.08-1.79.15-.76.09-.7,1.11.04,1.17.47.04.94.14,1.42.24-.09.43-.18.86-.27,1.28-.18.84,1.16,1.14,1.29.3.07-.45.14-.89.2-1.34.5.09,1,.17,1.5.15.78-.03,1.08-1.15.36-1.51Zm17.23.84c-.48-.25-1.03-.35-1.58-.41.1-.66.2-1.32.3-1.98.1-.64-.86-.89-1-.24-.15.73-.31,1.45-.46,2.18-.61.02-1.23.08-1.79.15-.76.09-.7,1.11.04,1.17.47.04.94.14,1.42.24-.09.43-.18.86-.27,1.28-.18.84,1.16,1.14,1.29.3.07-.45.14-.89.2-1.34.5.09,1,.17,1.5.15.78-.03,1.08-1.15.36-1.51Zm10.11.63c-.48-.25-1.03-.35-1.58-.41.1-.66.2-1.32.3-1.98.1-.64-.86-.89-1-.24-.15.73-.31,1.45-.46,2.18-.61.02-1.23.08-1.79.15-.76.09-.7,1.11.04,1.17.47.04.94.14,1.42.24-.09.43-.18.86-.27,1.28-.18.84,1.16,1.14,1.29.3.07-.45.14-.89.21-1.34.5.09,1,.17,1.5.15.78-.03,1.08-1.15.36-1.51Z"/><path class="cls-1" d="m228.95,143.43c1.2-2.33,42.94,16.17,48.52,19.44,1.69.99,3.89,1.43,5.78.44-11.44-9.37-39.63-18.58-39.71-19.76-.08-1.18,12.81,3.52,18.2,6.84,7.88,4.18,15.58,6.27,22.28,10.98,2.38,1.4,2.61-.22,3.28-.71,2.86-2.55,5.24-10.29,3.3-11.1-1.95-.82-1.4-.77-2.5-.95-1.67-.28,2.67-2.67,1.54-3.88-1.14-1.21-36.31-15.98-35.05-17.58,1.26-1.6,12.87,6.67,19.35,9.78,5.39,2.23,10.89,4.34,16.34,6.65.76-1.44,1.22-2.81.36-4.18-.97-2.54-7.61-2.84-10.78-4.7-8.42-5.95-18.93-8.84-27.77-13.86-6.48-3.54-13.63-5.08-20.77-6.51-9.92-1.58-19.67-7.13-28.27-6.61-7.71.76-4.23,13.39-1.47,15.78,2.76,2.39,1.12,2.36-.71,2.62-1.83.26-6.7,3.98-6.57,7.39.13,3.41,51.5,16.55,70.01,24.43-11.74-5.55-21.32-9.8-33.9-13-.71-.13-2.02-.39-1.45-1.51Z"/><path class="cls-4" d="m65.73,63.99c-1.57,5.77-1.13,12.3-3.67,17.81-4.02,8.73-9.75-5.32-12.89-8.15-3.73-3.36-9.69-7.05-13.79-3.18-4.09,3.86-4.54,11.17-5.7,16.36-.87,3.87-2.06,13.56-7.19,14.37-5.33.85-9.74-9.05-15.49-5.68C2.38,98.23.25,108.01.03,112.85c-.19,4.09.47,14.52,6.59,14.23.92-.04,2.52-.82,3.6-1.78.52-.38.99-.9,1.37-1.61,2.29-4.21-2.48-14.45,3.82-16.02,6.35-1.58,9.38,8.38,14.9,10.02,6.12,1.82,9.9-5.87,10.17-11.24.18-3.57-3.73-13.09-.55-16.33,4.24-4.31,11.1,5.48,13.8,7.4,4.22,3,11.08,6.44,14.8,1.02,3.76-5.47,2.36-12.63,4.18-18.7.68-2.25,1.53-4.76,4.09-5.34,3.01-.68,4.53,2.73,6.46,4.62,2.07,2.02,4.31,4.36,7.24,2.44,2.23-1.47,2.91-4.03,2.26-6.4-2.35-8.56-22.85-26.57-27.04-11.19Z"/></g></svg>