<?xml version="1.0" encoding="UTF-8"?><svg id="_レイヤー_2" xmlns="http://www.w3.org/2000/svg" viewBox="0 0 133.79 138.53"><defs><style>.cls-1{fill:#f8b200;}.cls-2{fill:#009e71;}</style></defs><g id="_2"><path class="cls-2" d="m22.76,68.65c7.07-6.08,16.66-8.22,24.72-12.92,7.66-4.47,13.77-11.17,20.99-16.33,10.4-7.43,23.54-11.56,36.15-9.46,12.61,2.11,24.29,11.1,27.87,23.38,2.55,8.76.97,18.17-1.33,26.99-3.18,12.18-7.72,24.01-13.49,35.2-2.98,5.77-6.38,11.48-11.36,15.64-12.79,10.69-31.97,8.22-47.57,2.37-9.85-3.69-42.4-10.82-47.1-18.22-7.3-11.5,1.89-38.71,11.13-46.65Z"/><path class="cls-1" d="m63.14,81.26c.88-.99,1.75-1.85,2.77-2.69.59-.49,1.36-.2,1.59.49.48,1.42.96,2.84,1.44,4.27.2.6-.71.88-1,.37-.52-.93-1.05-1.86-1.57-2.79-.59.63-1.2,1.24-1.88,1.83-1,.87-2.2-.53-1.36-1.48Zm-6.5-.95c.68-.59,1.29-1.2,1.88-1.83.52.93,1.05,1.86,1.57,2.79.29.51,1.2.23,1-.37-.48-1.42-.96-2.84-1.44-4.27-.24-.7-1-.98-1.59-.49-1.02.84-1.89,1.7-2.77,2.69-.84.95.36,2.35,1.36,1.48Zm-7.86-2.43c.68-.59,1.29-1.2,1.88-1.83.52.93,1.05,1.86,1.57,2.79.29.51,1.2.23,1-.37-.48-1.42-.96-2.84-1.44-4.27-.24-.7-1-.98-1.59-.49-1.02.84-1.89,1.7-2.77,2.69-.84.95.36,2.35,1.36,1.48Zm-7.86-2.43c.68-.59,1.29-1.2,1.88-1.83.52.93,1.05,1.86,1.57,2.79.29.51,1.2.23,1-.37-.48-1.42-.96-2.84-1.44-4.27-.24-.7-1-.98-1.59-.49-1.02.84-1.89,1.7-2.77,2.69-.84.95.36,2.35,1.36,1.48Zm-7.86-2.43c.68-.59,1.29-1.2,1.88-1.83.52.93,1.05,1.86,1.57,2.79.29.51,1.2.23,1-.37-.48-1.42-.96-2.84-1.44-4.27-.24-.7-1-.98-1.59-.49-1.02.84-1.89,1.7-2.77,2.69-.84.95.36,2.35,1.36,1.48Zm-7.86-2.43c.68-.59,1.29-1.2,1.88-1.83.52.93,1.05,1.86,1.57,2.79.29.51,1.2.23,1-.37-.48-1.42-.96-2.84-1.44-4.27-.24-.7-1-.98-1.59-.49-1.02.84-1.89,1.7-2.77,2.69-.84.95.36,2.35,1.36,1.48Zm-7.86-2.43c.68-.59,1.29-1.2,1.88-1.83.52.93,1.05,1.86,1.57,2.79.29.51,1.2.23,1-.37-.48-1.42-.96-2.84-1.44-4.27-.24-.7-1-.98-1.59-.49-1.02.84-1.89,1.7-2.77,2.69-.84.95.36,2.35,1.36,1.48Zm-7.86-2.43c.68-.59,1.29-1.2,1.88-1.83.52.93,1.05,1.86,1.57,2.79.29.51,1.2.23,1-.37-.48-1.42-.96-2.84-1.44-4.27-.24-.7-1-.98-1.59-.49-1.03.84-1.89,1.7-2.77,2.69-.84.95.36,2.35,1.36,1.48Zm-7.86-2.43c.68-.59,1.29-1.2,1.88-1.83.52.93,1.05,1.86,1.57,2.79.29.51,1.2.23,1-.37-.48-1.42-.96-2.84-1.44-4.27-.24-.7-1-.98-1.59-.49-1.02.84-1.89,1.7-2.77,2.69-.84.95.36,2.35,1.36,1.48Zm63.53,11.44c.88-.99,1.75-1.85,2.77-2.69.59-.49,1.36-.2,1.59.49.48,1.42.96,2.84,1.44,4.27.2.6-.71.88-1,.37-.52-.93-1.05-1.86-1.57-2.79-.59.63-1.2,1.24-1.88,1.83-1,.87-2.2-.53-1.36-1.48Zm-6.5-.95c.68-.59,1.29-1.2,1.88-1.83.53.93,1.05,1.86,1.57,2.79.29.51,1.2.23,1-.37-.48-1.42-.96-2.84-1.44-4.27-.24-.7-1-.98-1.59-.49-1.03.84-1.9,1.7-2.77,2.69-.84.95.36,2.35,1.36,1.48Zm-7.86-2.43c.68-.59,1.29-1.2,1.88-1.83.52.93,1.05,1.86,1.57,2.79.29.51,1.2.23,1-.37-.48-1.42-.96-2.84-1.44-4.27-.24-.7-1-.98-1.59-.49-1.02.84-1.89,1.7-2.77,2.69-.84.95.36,2.35,1.36,1.48Zm-7.86-2.43c.68-.59,1.29-1.2,1.88-1.83.52.93,1.05,1.86,1.57,2.79.29.51,1.2.23,1-.37-.48-1.42-.96-2.84-1.44-4.27-.24-.7-1-.98-1.59-.49-1.02.84-1.89,1.7-2.77,2.69-.84.95.36,2.35,1.36,1.48Zm-7.86-2.43c.68-.59,1.29-1.2,1.88-1.83.52.93,1.05,1.86,1.57,2.79.29.51,1.2.23,1-.37-.48-1.42-.96-2.84-1.44-4.27-.24-.7-1-.98-1.59-.49-1.02.84-1.89,1.7-2.77,2.69-.84.95.36,2.35,1.36,1.48Zm-7.86-2.43c.68-.59,1.29-1.2,1.88-1.83.53.93,1.05,1.86,1.57,2.79.29.51,1.2.23,1-.37-.48-1.42-.96-2.84-1.44-4.27-.24-.7-1-.98-1.59-.49-1.02.84-1.89,1.7-2.77,2.69-.84.95.36,2.35,1.36,1.48Zm-7.86-2.43c.68-.59,1.29-1.2,1.88-1.83.52.93,1.05,1.86,1.57,2.79.29.51,1.2.23,1-.37-.48-1.42-.96-2.84-1.44-4.27-.24-.7-1-.98-1.59-.49-1.02.84-1.89,1.7-2.77,2.69-.84.95.36,2.35,1.36,1.48Zm-7.86-2.43c.68-.59,1.29-1.2,1.88-1.83.52.93,1.05,1.86,1.57,2.79.29.51,1.2.23,1-.37-.48-1.42-.96-2.84-1.44-4.27-.24-.7-1-.98-1.59-.49-1.02.84-1.89,1.7-2.77,2.69-.84.95.36,2.35,1.36,1.48Zm-7.86-2.43c.68-.59,1.29-1.2,1.88-1.83.52.93,1.05,1.86,1.57,2.79.29.51,1.2.23,1-.37-.48-1.42-.96-2.84-1.44-4.27-.24-.7-1-.98-1.59-.49-1.02.84-1.89,1.7-2.77,2.69-.84.95.36,2.35,1.36,1.48Zm63.53,11.44c.88-.99,1.75-1.85,2.77-2.69.59-.49,1.36-.2,1.59.49.48,1.42.96,2.84,1.44,4.27.2.6-.71.88-1,.37-.52-.93-1.05-1.86-1.57-2.79-.59.63-1.2,1.24-1.88,1.83-1,.87-2.2-.53-1.36-1.48Zm-6.5-.95c.68-.59,1.29-1.2,1.88-1.83.52.93,1.05,1.86,1.57,2.79.29.51,1.2.23,1-.37-.48-1.42-.96-2.84-1.44-4.27-.24-.7-1-.98-1.59-.49-1.02.84-1.89,1.7-2.77,2.69-.84.95.36,2.35,1.36,1.48Zm-7.86-2.43c.68-.59,1.29-1.2,1.88-1.83.52.93,1.05,1.86,1.57,2.79.29.51,1.2.23,1-.37-.48-1.42-.96-2.84-1.44-4.27-.24-.7-1-.98-1.59-.49-1.02.84-1.89,1.7-2.77,2.69-.84.95.36,2.35,1.36,1.48Zm-7.86-2.43c.68-.59,1.29-1.2,1.88-1.83.52.93,1.05,1.86,1.57,2.79.29.51,1.2.23,1-.37-.48-1.42-.96-2.84-1.44-4.27-.24-.7-1-.98-1.59-.49-1.02.84-1.89,1.7-2.77,2.69-.84.95.36,2.35,1.36,1.48Zm-7.86-2.43c.68-.59,1.29-1.2,1.88-1.83.52.93,1.05,1.86,1.57,2.79.29.51,1.2.23,1-.37-.48-1.42-.96-2.84-1.44-4.27-.24-.7-1-.98-1.59-.49-1.02.84-1.89,1.7-2.77,2.69-.84.95.36,2.35,1.36,1.48Zm-7.86-2.43c.68-.59,1.29-1.2,1.88-1.83.52.93,1.05,1.86,1.57,2.79.29.51,1.2.23,1-.37-.48-1.42-.96-2.84-1.44-4.27-.24-.7-1-.98-1.59-.49-1.02.84-1.89,1.7-2.77,2.69-.84.95.36,2.35,1.36,1.48Zm-7.86-2.43c.68-.59,1.29-1.2,1.88-1.83.52.93,1.05,1.86,1.57,2.79.29.51,1.2.23,1-.37-.48-1.42-.96-2.84-1.44-4.27-.24-.7-1-.98-1.59-.49-1.02.84-1.89,1.7-2.77,2.69-.84.95.36,2.35,1.36,1.48Zm-7.86-2.43c.68-.59,1.29-1.2,1.88-1.83.52.93,1.05,1.86,1.57,2.79.29.51,1.2.23,1-.37-.48-1.42-.96-2.84-1.44-4.27-.24-.7-1-.98-1.59-.49-1.02.84-1.89,1.7-2.77,2.69-.84.95.36,2.35,1.36,1.48Zm-7.86-2.43c.68-.59,1.29-1.2,1.88-1.83.52.93,1.05,1.86,1.57,2.79.29.51,1.2.23,1-.37-.48-1.42-.96-2.84-1.44-4.27-.24-.7-1-.98-1.59-.49-1.02.84-1.89,1.7-2.77,2.69-.84.95.36,2.35,1.36,1.48Zm63.53,11.44c.88-.99,1.75-1.85,2.77-2.69.59-.49,1.36-.2,1.59.49.48,1.42.96,2.84,1.44,4.27.2.6-.71.88-1,.37-.52-.93-1.05-1.86-1.57-2.79-.59.63-1.2,1.24-1.88,1.83-1,.87-2.2-.53-1.36-1.48Zm-6.5-.95c.68-.59,1.29-1.2,1.88-1.83.52.93,1.05,1.86,1.57,2.79.29.51,1.2.23,1-.37-.48-1.42-.96-2.84-1.44-4.27-.24-.7-1-.98-1.59-.49-1.02.84-1.89,1.7-2.77,2.69-.84.95.36,2.35,1.36,1.48Zm-7.86-2.43c.68-.59,1.29-1.2,1.88-1.83.52.93,1.05,1.86,1.57,2.79.29.51,1.2.23,1-.37-.48-1.42-.96-2.84-1.44-4.27-.24-.7-1-.98-1.59-.49-1.02.84-1.89,1.7-2.77,2.69-.84.95.36,2.35,1.36,1.48Zm-7.86-2.43c.68-.59,1.29-1.2,1.88-1.83.53.93,1.05,1.86,1.57,2.79.29.51,1.2.23,1-.37-.48-1.42-.96-2.84-1.44-4.27-.24-.7-1-.98-1.59-.49-1.02.84-1.89,1.7-2.77,2.69-.84.95.36,2.35,1.36,1.48Zm-7.86-2.43c.68-.59,1.29-1.2,1.88-1.83.52.93,1.05,1.86,1.57,2.79.29.51,1.2.23,1-.37-.48-1.42-.96-2.84-1.44-4.27-.24-.7-1-.98-1.59-.49-1.02.84-1.89,1.7-2.77,2.69-.84.95.36,2.35,1.36,1.48Zm-7.86-2.43c.68-.59,1.29-1.2,1.88-1.83.52.93,1.05,1.86,1.57,2.79.29.51,1.2.23,1-.37-.48-1.42-.96-2.84-1.44-4.27-.24-.7-1-.98-1.59-.49-1.02.84-1.89,1.7-2.77,2.69-.84.95.36,2.35,1.36,1.48Zm-7.86-2.43c.68-.59,1.29-1.2,1.88-1.83.52.93,1.05,1.86,1.57,2.79.29.51,1.2.23,1-.37-.48-1.42-.96-2.84-1.44-4.27-.24-.7-1-.98-1.59-.49-1.02.84-1.89,1.7-2.77,2.69-.84.95.36,2.35,1.36,1.48Zm-7.86-2.43c.68-.59,1.29-1.2,1.88-1.83.52.93,1.05,1.86,1.57,2.79.29.51,1.2.23,1-.37-.48-1.42-.96-2.84-1.44-4.27-.24-.7-1-.98-1.59-.49-1.02.84-1.89,1.7-2.77,2.69-.84.95.36,2.35,1.36,1.48Zm-7.86-2.43c.68-.59,1.29-1.2,1.88-1.83.52.93,1.05,1.86,1.57,2.79.29.51,1.2.23,1-.37-.48-1.42-.96-2.84-1.44-4.27-.24-.7-1-.98-1.59-.49-1.02.84-1.89,1.7-2.77,2.69-.84.95.36,2.35,1.36,1.48Zm63.53,11.44c.88-.99,1.75-1.85,2.77-2.69.59-.49,1.36-.2,1.59.49.48,1.42.96,2.84,1.44,4.27.2.6-.71.88-1,.37-.52-.93-1.05-1.86-1.57-2.79-.59.63-1.2,1.24-1.88,1.83-1,.87-2.2-.53-1.36-1.48Zm-6.5-.95c.68-.59,1.29-1.2,1.88-1.83.52.93,1.05,1.86,1.57,2.79.29.51,1.2.23,1-.37-.48-1.42-.96-2.84-1.44-4.27-.24-.7-1-.98-1.59-.49-1.02.84-1.89,1.7-2.77,2.69-.84.95.36,2.35,1.36,1.48Zm-7.86-2.43c.68-.59,1.29-1.2,1.88-1.83.52.93,1.05,1.86,1.57,2.79.29.51,1.2.23,1-.37-.48-1.42-.96-2.84-1.44-4.27-.24-.7-1-.98-1.59-.49-1.02.84-1.89,1.7-2.77,2.69-.84.95.36,2.35,1.36,1.48Zm-7.86-2.43c.68-.59,1.29-1.2,1.88-1.83.52.93,1.05,1.86,1.57,2.79.29.51,1.2.23,1-.37-.48-1.42-.96-2.84-1.44-4.27-.24-.7-1-.98-1.59-.49-1.02.84-1.89,1.7-2.77,2.69-.84.95.36,2.35,1.36,1.48Zm-7.86-2.43c.68-.59,1.29-1.2,1.88-1.83.52.93,1.05,1.86,1.57,2.79.29.51,1.2.23,1-.37-.48-1.42-.96-2.84-1.44-4.27-.24-.7-1-.98-1.59-.49-1.02.84-1.89,1.7-2.77,2.69-.84.95.36,2.35,1.36,1.48Zm-7.86-2.43c.68-.59,1.29-1.2,1.88-1.83.52.93,1.05,1.86,1.57,2.79.29.51,1.2.23,1-.37-.48-1.42-.96-2.84-1.44-4.27-.24-.7-1-.98-1.59-.49-1.02.84-1.89,1.7-2.77,2.69-.84.95.36,2.35,1.36,1.48Zm-7.86-2.43c.68-.59,1.29-1.2,1.88-1.83.52.93,1.05,1.86,1.57,2.79.29.51,1.2.23,1-.37-.48-1.42-.96-2.84-1.44-4.27-.24-.7-1-.98-1.59-.49-1.02.84-1.89,1.7-2.77,2.69-.84.95.36,2.35,1.36,1.48Zm-7.86-2.43c.68-.59,1.29-1.2,1.88-1.83.52.93,1.05,1.86,1.57,2.79.29.51,1.2.23,1-.37-.48-1.42-.96-2.84-1.44-4.27-.24-.7-1-.98-1.59-.49-1.02.84-1.89,1.7-2.77,2.69-.84.95.36,2.35,1.36,1.48Zm-7.86-2.43c.68-.59,1.29-1.2,1.88-1.83.52.93,1.05,1.86,1.57,2.79.29.51,1.2.23,1-.37-.48-1.42-.96-2.84-1.44-4.27-.24-.7-1-.98-1.59-.49-1.02.84-1.89,1.7-2.77,2.69-.84.95.36,2.35,1.36,1.48Zm63.53,11.44c.88-.99,1.75-1.85,2.77-2.69.59-.49,1.36-.2,1.59.49.48,1.42.96,2.84,1.44,4.27.2.6-.71.88-1,.37-.52-.93-1.05-1.86-1.57-2.79-.59.63-1.2,1.24-1.88,1.83-1,.87-2.2-.53-1.36-1.48Zm-6.5-.95c.68-.59,1.29-1.2,1.88-1.83.52.93,1.05,1.86,1.57,2.79.29.51,1.2.23,1-.37-.48-1.42-.96-2.84-1.44-4.27-.24-.7-1-.98-1.59-.49-1.02.84-1.89,1.7-2.77,2.69-.84.95.36,2.35,1.36,1.48Zm-7.86-2.43c.68-.59,1.29-1.2,1.88-1.83.52.93,1.05,1.86,1.57,2.79.29.51,1.2.23,1-.37-.48-1.42-.96-2.84-1.44-4.27-.24-.7-1-.98-1.59-.49-1.02.84-1.89,1.7-2.77,2.69-.84.95.36,2.35,1.36,1.48Zm-7.86-2.43c.68-.59,1.29-1.2,1.88-1.83.52.93,1.05,1.86,1.57,2.79.29.51,1.2.23,1-.37-.48-1.42-.96-2.84-1.44-4.27-.24-.7-1-.98-1.59-.49-1.02.84-1.89,1.7-2.77,2.69-.84.95.36,2.35,1.36,1.48Zm-7.86-2.43c.68-.59,1.29-1.2,1.88-1.83.52.93,1.05,1.86,1.57,2.79.29.51,1.2.23,1-.37-.48-1.42-.96-2.84-1.44-4.27-.24-.7-1-.98-1.59-.49-1.03.84-1.89,1.7-2.77,2.69-.84.95.36,2.35,1.36,1.48Zm-7.86-2.43c.68-.59,1.29-1.2,1.88-1.83.52.93,1.05,1.86,1.57,2.79.29.51,1.2.23,1-.37-.48-1.42-.96-2.84-1.44-4.27-.24-.7-1-.98-1.59-.49-1.02.84-1.89,1.7-2.77,2.69-.84.95.36,2.35,1.36,1.48Zm-7.86-2.43c.68-.59,1.29-1.2,1.88-1.83.52.93,1.05,1.86,1.57,2.79.29.51,1.2.23,1-.37-.48-1.42-.96-2.84-1.44-4.27-.24-.7-1-.98-1.59-.49-1.02.84-1.9,1.7-2.77,2.69-.84.95.36,2.35,1.36,1.48Zm-7.86-2.43c.68-.59,1.29-1.2,1.88-1.83.52.93,1.05,1.86,1.57,2.79.29.51,1.2.23,1-.37-.48-1.42-.96-2.84-1.44-4.27-.24-.7-1-.98-1.59-.49-1.02.84-1.89,1.7-2.77,2.69-.84.95.36,2.35,1.36,1.48Zm-7.86-2.43c.68-.59,1.29-1.2,1.88-1.83.52.93,1.05,1.86,1.57,2.79.29.51,1.2.23,1-.37-.48-1.42-.96-2.84-1.44-4.27-.24-.7-1-.98-1.59-.49-1.03.84-1.89,1.7-2.77,2.69-.84.95.36,2.35,1.36,1.48Zm63.53,11.44c.88-.99,1.75-1.85,2.77-2.69.59-.49,1.36-.2,1.59.49.48,1.42.96,2.84,1.44,4.27.2.6-.71.88-1,.37-.52-.93-1.05-1.86-1.57-2.79-.59.63-1.2,1.24-1.88,1.83-1,.87-2.2-.53-1.36-1.48Zm-6.5-.95c.68-.59,1.29-1.2,1.88-1.83.52.93,1.05,1.86,1.57,2.79.29.51,1.2.23,1-.37-.48-1.42-.96-2.84-1.44-4.27-.24-.7-1-.98-1.59-.49-1.02.84-1.89,1.7-2.77,2.69-.84.95.36,2.35,1.36,1.48Zm-7.86-2.43c.68-.59,1.29-1.2,1.88-1.83.53.93,1.05,1.86,1.57,2.79.29.51,1.2.23,1-.37-.48-1.42-.96-2.84-1.44-4.27-.24-.7-1-.98-1.59-.49-1.02.84-1.89,1.7-2.77,2.69-.84.95.36,2.35,1.36,1.48Zm-7.86-2.43c.68-.59,1.29-1.2,1.88-1.83.52.93,1.05,1.86,1.57,2.79.29.51,1.2.23,1-.37-.48-1.42-.96-2.84-1.44-4.27-.24-.7-1-.98-1.59-.49-1.02.84-1.89,1.7-2.77,2.69-.84.95.36,2.35,1.36,1.48Zm-7.86-2.43c.68-.59,1.29-1.2,1.88-1.83.52.93,1.05,1.86,1.57,2.79.29.51,1.2.23,1-.37-.48-1.42-.96-2.84-1.44-4.27-.24-.7-1-.98-1.59-.49-1.02.84-1.89,1.7-2.77,2.69-.84.95.36,2.35,1.36,1.48Zm-7.86-2.43c.68-.59,1.29-1.2,1.88-1.83.52.93,1.05,1.86,1.57,2.79.29.51,1.2.23,1-.37-.48-1.42-.96-2.84-1.44-4.27-.24-.7-1-.98-1.59-.49-1.02.84-1.89,1.7-2.77,2.69-.84.95.36,2.35,1.36,1.48Zm-7.86-2.43c.68-.59,1.29-1.2,1.88-1.83.52.93,1.05,1.86,1.57,2.79.29.51,1.2.23,1-.37-.48-1.42-.96-2.84-1.44-4.27-.24-.7-1-.98-1.59-.49-1.02.84-1.89,1.7-2.77,2.69-.84.95.36,2.35,1.36,1.48Zm-7.86-2.43c.68-.59,1.29-1.2,1.88-1.83.52.93,1.05,1.86,1.57,2.79.29.51,1.2.23,1-.37-.48-1.42-.96-2.84-1.44-4.27-.24-.7-1-.98-1.59-.49-1.02.84-1.89,1.7-2.77,2.69-.84.95.36,2.35,1.36,1.48Zm-7.86-2.43c.68-.59,1.29-1.2,1.88-1.83.52.93,1.05,1.86,1.57,2.79.29.51,1.2.23,1-.37-.48-1.42-.96-2.84-1.44-4.27-.24-.7-1-.98-1.59-.49-1.02.84-1.89,1.7-2.77,2.69-.84.95.36,2.35,1.36,1.48Zm63.53,11.44c.88-.99,1.75-1.85,2.77-2.69.59-.49,1.36-.2,1.59.49.48,1.42.96,2.84,1.44,4.27.2.6-.71.88-1,.37-.52-.93-1.05-1.86-1.57-2.79-.59.63-1.2,1.24-1.88,1.83-1,.87-2.2-.53-1.36-1.48Zm-6.5-.95c.68-.59,1.29-1.2,1.88-1.83.52.93,1.05,1.86,1.57,2.79.29.51,1.2.23,1-.37-.48-1.42-.96-2.84-1.44-4.27-.24-.7-1-.98-1.59-.49-1.02.84-1.89,1.7-2.77,2.69-.84.95.36,2.35,1.36,1.48Zm-7.86-2.43c.68-.59,1.29-1.2,1.88-1.83.52.93,1.05,1.86,1.57,2.79.29.51,1.2.23,1-.37-.48-1.42-.96-2.84-1.44-4.27-.24-.7-1-.98-1.59-.49-1.02.84-1.89,1.7-2.77,2.69-.84.95.36,2.35,1.36,1.48Zm-7.86-2.43c.68-.59,1.29-1.2,1.88-1.83.53.93,1.05,1.86,1.57,2.79.29.51,1.2.23,1-.37-.48-1.42-.96-2.84-1.44-4.27-.24-.7-1-.98-1.59-.49-1.02.84-1.89,1.7-2.77,2.69-.84.95.36,2.35,1.36,1.48Zm-7.86-2.43c.68-.59,1.29-1.2,1.88-1.83.52.93,1.05,1.86,1.57,2.79.29.51,1.2.23,1-.37-.48-1.42-.96-2.84-1.44-4.27-.24-.7-1-.98-1.59-.49-1.02.84-1.89,1.7-2.77,2.69-.84.95.36,2.35,1.36,1.48Zm-7.86-2.43c.68-.59,1.29-1.2,1.88-1.83.52.93,1.05,1.86,1.57,2.79.29.51,1.2.23,1-.37-.48-1.42-.96-2.84-1.44-4.27-.24-.7-1-.98-1.59-.49-1.02.84-1.89,1.7-2.77,2.69-.84.95.36,2.35,1.36,1.48Zm-7.86-2.43c.68-.59,1.29-1.2,1.88-1.83.52.93,1.05,1.86,1.57,2.79.29.51,1.2.23,1-.37-.48-1.42-.96-2.84-1.44-4.27-.24-.7-1-.98-1.59-.49-1.02.84-1.89,1.7-2.77,2.69-.84.95.36,2.35,1.36,1.48Zm-7.86-2.43c.68-.59,1.29-1.2,1.88-1.83.52.93,1.05,1.86,1.57,2.79.29.51,1.2.23,1-.37-.48-1.42-.96-2.84-1.44-4.27-.24-.7-1-.98-1.59-.49-1.02.84-1.89,1.7-2.77,2.69-.84.95.36,2.35,1.36,1.48Zm-7.86-2.43c.68-.59,1.29-1.2,1.88-1.83.52.93,1.05,1.86,1.57,2.79.29.51,1.2.23,1-.37-.48-1.42-.96-2.84-1.44-4.27-.24-.7-1-.98-1.59-.49-1.02.84-1.89,1.7-2.77,2.69-.84.95.36,2.35,1.36,1.48Zm63.53,11.44c.88-.99,1.75-1.85,2.77-2.69.59-.49,1.36-.2,1.59.49.48,1.42.96,2.84,1.44,4.27.2.6-.71.88-1,.37-.52-.93-1.05-1.86-1.57-2.79-.59.63-1.2,1.24-1.88,1.83-1,.87-2.2-.53-1.36-1.48Zm-6.5-.95c.68-.59,1.29-1.2,1.88-1.83.52.93,1.05,1.86,1.57,2.79.29.51,1.2.23,1-.37-.48-1.42-.96-2.84-1.44-4.27-.24-.7-1-.98-1.59-.49-1.02.84-1.89,1.7-2.77,2.69-.84.95.36,2.35,1.36,1.48Zm-7.86-2.43c.68-.59,1.29-1.2,1.88-1.83.52.93,1.05,1.86,1.57,2.79.29.51,1.2.23,1-.37-.48-1.42-.96-2.84-1.44-4.27-.24-.7-1-.98-1.59-.49-1.02.84-1.89,1.7-2.77,2.69-.84.95.36,2.35,1.36,1.48Zm-7.86-2.43c.68-.59,1.29-1.2,1.88-1.83.52.93,1.05,1.86,1.57,2.79.29.51,1.2.23,1-.37-.48-1.42-.96-2.84-1.44-4.27-.24-.7-1-.98-1.59-.49-1.02.84-1.89,1.7-2.77,2.69-.84.95.36,2.35,1.36,1.48Zm-7.86-2.43c.68-.59,1.29-1.2,1.88-1.83.52.93,1.05,1.86,1.57,2.79.29.51,1.2.23,1-.37-.48-1.42-.96-2.84-1.44-4.27-.24-.7-1-.98-1.59-.49-1.02.84-1.89,1.7-2.77,2.69-.84.95.36,2.35,1.36,1.48Zm-7.86-2.43c.68-.59,1.29-1.2,1.88-1.83.52.93,1.05,1.86,1.57,2.79.29.51,1.2.23,1-.37-.48-1.42-.96-2.84-1.44-4.27-.24-.7-1-.98-1.59-.49-1.02.84-1.89,1.7-2.77,2.69-.84.95.36,2.35,1.36,1.48Zm-7.86-2.43c.68-.59,1.29-1.2,1.88-1.83.52.93,1.05,1.86,1.57,2.79.29.51,1.2.23,1-.37-.48-1.42-.96-2.84-1.44-4.27-.24-.7-1-.98-1.59-.49-1.03.84-1.89,1.7-2.77,2.69-.84.95.36,2.35,1.36,1.48Zm-7.86-2.43c.68-.59,1.29-1.2,1.88-1.83.52.93,1.05,1.86,1.57,2.79.29.51,1.2.23,1-.37-.48-1.42-.96-2.84-1.44-4.27-.24-.7-1-.98-1.59-.49-1.02.84-1.89,1.7-2.77,2.69-.84.95.36,2.35,1.36,1.48Zm-7.86-2.43c.68-.59,1.29-1.2,1.88-1.83.52.93,1.05,1.86,1.57,2.79.29.51,1.2.23,1-.37-.48-1.42-.96-2.84-1.44-4.27-.24-.7-1-.98-1.59-.49-1.02.84-1.89,1.7-2.77,2.69-.84.95.36,2.35,1.36,1.48Zm63.53,11.44c.88-.99,1.75-1.85,2.77-2.69.59-.49,1.36-.2,1.59.49.48,1.42.96,2.84,1.44,4.27.2.6-.71.88-1,.37-.52-.93-1.05-1.86-1.57-2.79-.59.63-1.2,1.24-1.88,1.83-1,.87-2.2-.53-1.36-1.48Zm-6.5-.95c.68-.59,1.29-1.2,1.88-1.83.52.93,1.05,1.86,1.57,2.79.29.51,1.2.23,1-.37-.48-1.42-.96-2.84-1.44-4.27-.24-.7-1-.98-1.59-.49-1.02.84-1.89,1.7-2.77,2.69-.84.95.36,2.35,1.36,1.48Zm-7.86-2.43c.68-.59,1.29-1.2,1.88-1.83.52.93,1.05,1.86,1.57,2.79.29.51,1.2.23,1-.37-.48-1.42-.96-2.84-1.44-4.27-.24-.7-1-.98-1.59-.49-1.02.84-1.89,1.7-2.77,2.69-.84.95.36,2.35,1.36,1.48Zm-7.86-2.43c.68-.59,1.29-1.2,1.88-1.83.52.93,1.05,1.86,1.57,2.79.29.51,1.2.23,1-.37-.48-1.42-.96-2.84-1.44-4.27-.24-.7-1-.98-1.59-.49-1.02.84-1.89,1.7-2.77,2.69-.84.95.36,2.35,1.36,1.48Zm-7.86-2.43c.68-.59,1.29-1.2,1.88-1.83.52.93,1.05,1.86,1.57,2.79.29.51,1.2.23,1-.37-.48-1.42-.96-2.84-1.44-4.27-.24-.7-1-.98-1.59-.49-1.02.84-1.89,1.7-2.77,2.69-.84.95.36,2.35,1.36,1.48Zm-7.86-2.43c.68-.59,1.29-1.2,1.88-1.83.52.93,1.05,1.86,1.57,2.79.29.51,1.2.23,1-.37-.48-1.42-.96-2.84-1.44-4.27-.24-.7-1-.98-1.59-.49-1.02.84-1.89,1.7-2.77,2.69-.84.95.36,2.35,1.36,1.48Zm-7.86-2.43c.68-.59,1.29-1.2,1.88-1.83.52.93,1.05,1.86,1.57,2.79.29.51,1.2.23,1-.37-.48-1.42-.96-2.84-1.44-4.27-.24-.7-1-.98-1.59-.49-1.02.84-1.89,1.7-2.77,2.69-.84.95.36,2.35,1.36,1.48Zm-7.86-2.43c.68-.59,1.29-1.2,1.88-1.83.53.93,1.05,1.86,1.57,2.79.29.51,1.2.23,1-.37-.48-1.42-.96-2.84-1.44-4.27-.24-.7-1-.98-1.59-.49-1.03.84-1.89,1.7-2.77,2.69-.84.95.36,2.35,1.36,1.48Zm-7.86-2.43c.68-.59,1.29-1.2,1.88-1.83.52.93,1.05,1.86,1.57,2.79.29.51,1.2.23,1-.37-.48-1.42-.96-2.84-1.44-4.27-.24-.7-1-.98-1.59-.49-1.02.84-1.89,1.7-2.77,2.69-.84.95.36,2.35,1.36,1.48Z"/></g></svg>