<?xml version="1.0" encoding="UTF-8"?><svg id="_レイヤー_2" xmlns="http://www.w3.org/2000/svg" viewBox="0 0 190.29 199.84"><defs><style>.cls-1{fill:#f8b200;}.cls-2{fill:#009e71;}.cls-3{fill:#cd66a3;}</style></defs><g id="_3"><path class="cls-1" d="m120.26,188.85c-1.95-2.22-2.37-5.37-2.5-8.32-.29-6.67.45-13.4-.37-20.02-.82-6.63-3.53-13.45-9.07-17.17-12.96-8.7-31.32,4.23-45.76-1.71-1.92-.79-3.75-1.95-4.92-3.66-4.19-6.13,2.07-14.05,2.24-21.48.21-8.87-8.07-15.16-14.29-21.47-9.45-9.57-15.52-24.73-9.02-36.51,4.54-8.25,13.9-12.53,22.92-15.18,26.65-7.84,55.29-6.16,82.48-.48,14.12,2.95,28.85,7.45,38.36,18.32,9.15,10.46,11.88,25.66,8.7,39.19-1.91,8.14-5.74,15.68-9.53,23.12-8.88,17.44-18.62,33.54-22.25,52.82-1.18,6.25-2.86,10.35-8.95,13.11-6.42,2.91-22.63,5.57-28.03-.55Z"/><ellipse class="cls-3" cx="50.62" cy="149.28" rx="50.62" ry="50.57"/><path class="cls-2" d="m72.05,10.3c0-.95.4-1.88,1.14-2.51.4-.35.93-.56,1.47-.53.15.03.3.05.44.08-.07-.01-.13-.03-.27-.05.3-.06.53.07.73.26,0-.02,0-.02.06.02.64.37.93,1.1.93,1.8,0,1.04-.36,1.79-1.08,2.54-1.32,1.37-3.42.04-3.43-1.62Zm10.15,3.9c.5-1.21.74-2.02.23-3.26-.23-.54-.9-.64-1.38-.44-1.26.52-1.6,1.47-2.09,2.66-.84,2.03,2.41,3.06,3.24,1.04Zm-5.56,10.06c.3-.56.7-.94.79-1.6.07-.5-.1-.85-.24-1.32-.06-.22-.22-.46-.46-.51-.74-.15-1.37-.13-1.97.41-.77.7-.71,1.61-.6,2.56.13,1.16,1.94,1.47,2.48.45Zm11.18.65c.57-.8.99-1.74,1.44-2.61.54-1.03-.76-2.39-1.68-1.41-.75.8-1.56,1.57-2.2,2.46-1.08,1.52,1.36,3.07,2.44,1.56Zm-.41-7.16c.07-.68.15-1.36.22-2.04.11-.99-1.34-1.19-1.66-.31-.24.65-.48,1.3-.72,1.95-.53,1.45,1.98,2.06,2.16.4Zm-27.66-5.55c.7-.9.77-1.9.96-3.01.18-.99-1.45-1.51-1.88-.61-.49,1.02-1.01,1.85-.96,3.01.04,1.05,1.24,1.43,1.88.6Zm8.09-3.69l.58-1.2c.66-1.36-1.34-2.66-2.01-1.28l-.58,1.2c-.66,1.36,1.34,2.66,2.01,1.28Zm-.96,12.04c.27-1.3.54-2.6.8-3.9.23-1.11-1.38-2.16-1.99-.93-.57,1.16-1.15,2.31-1.72,3.47-1.11,2.24,2.46,3.51,2.91,1.36Zm.18,12.53c.25-.78.51-1.55.76-2.33.38-1.15-1.42-2.09-1.99-.93l-1.06,2.19c-.82,1.68,1.73,2.82,2.29,1.08Zm7.92,3.1c.68-.87.77-1.96.99-3.01.39-1.89-2.36-2.87-2.92-.94-.34,1.17-.78,2.26-.56,3.5.23,1.27,1.8,1.33,2.48.45Zm6.81-4.15c.69-.73,1.18-1.5,1.57-2.42.73-1.72-2.04-2.59-2.76-.89-.19.44-.45.83-.77,1.18-1.26,1.35.68,3.49,1.96,2.13Zm-8.33-12.92c.18-.67.36-1.34.54-2.01.44-1.64-2.01-2.14-2.33-.43-.12.68-.25,1.36-.37,2.04-.22,1.24,1.84,1.6,2.16.4Zm18.95,17.57c.35-1.27.71-2.54,1.06-3.82.38-1.37-1.73-2.05-2.11-.68-.35,1.27-.71,2.54-1.06,3.82-.38,1.37,1.73,2.05,2.11.68Zm1.08-9.65c.23-.47.45-.94.68-1.41.52-1.08-.83-1.97-1.58-1.01-.32.41-.64.82-.96,1.23-.89,1.13,1.25,2.47,1.87,1.19Zm-.97-6.74l.33-1.67c.23-1.17-1.55-1.76-1.78-.57l-.33,1.67c-.23,1.17,1.55,1.76,1.78.57Zm-6.79,16.12c.37-.66.75-1.33,1.12-1.99.76-1.36-1.37-2.64-2.01-1.28-.33.69-.65,1.39-.98,2.08-.59,1.25,1.15,2.46,1.87,1.19Zm-3.66-13.35c.17-.41.33-.82.5-1.22.26-.62-.74-1.09-1.07-.5-.22.38-.44.77-.65,1.15-.48.85.85,1.5,1.22.57Zm-32.48-13.29c.74-.93.75-2.02.5-3.15-.27-1.29-2.37-1.2-2.36.18,0,.76-.23,1.51-.34,2.27-.19,1.31,1.54,1.53,2.2.71Zm7.24-7.29l.35-1.08c.44-1.36-1.67-2.04-2.11-.68l-.34,1.08c-.44,1.36,1.67,2.04,2.11.68Zm7.62.91c.35-.64.32-1,.22-1.72-.07-.5-.78-.73-1.13-.36-.5.52-.74.8-.82,1.53-.11.92,1.28,1.36,1.73.55Zm8.79,1.39c.2-.73.41-1.45.61-2.18.32-1.16-1.37-1.71-1.78-.57l-.77,2.13c-.45,1.24,1.59,1.89,1.95.63Zm7.81,3.3c.11-.56.23-1.11.34-1.67.3-1.49-1.97-2.23-2.27-.73-.11.56-.23,1.11-.34,1.67-.3,1.49,1.97,2.23,2.27.73Zm-23.52,16.51c.26-.5.51-1.01.77-1.51.83-1.64-1.62-2.81-2.29-1.08-.21.53-.41,1.06-.62,1.58-.48,1.24,1.52,2.22,2.14,1.01Zm3.58-7.48l.66-1.77c.38-1.03-1.33-1.58-1.62-.52-.16.61-.33,1.21-.49,1.82-.26.95,1.12,1.4,1.46.47Zm-9.82,2.78c.34-.75.67-1.5,1.01-2.25.53-1.18-1.49-1.88-1.95-.63l-.85,2.3c-.42,1.15,1.3,1.65,1.78.57Zm3.67-9.31l.23-.72c.4-1.25-1.54-1.88-1.95-.63l-.23.72c-.4,1.25,1.54,1.88,1.95.63Zm-14.05,5.38c.25-1.04.5-2.08.75-3.12.38-1.59-2.05-2.38-2.43-.78-.25,1.04-.5,2.08-.75,3.12-.38,1.59,2.05,2.38,2.43.78Zm3.02-7.79l.22-1.91c.14-1.2-1.74-1.3-1.87-.1l-.22,1.91c-.14,1.2,1.74,1.3,1.87.1Zm.99,13.58l.45-2.63c.2-1.19-1.67-1.28-1.87-.1l-.45,2.63c-.2,1.19,1.67,1.28,1.87.1Zm14.57,9.29c.19-.6.38-1.2.58-1.79.4-1.25-1.54-1.88-1.95-.63l-.58,1.79c-.4,1.25,1.54,1.88,1.95.63Zm5.62-2.75c.14-.68.31-1.49.64-2.1.51-.98-.67-2.14-1.55-1.3-.89.85-1.39,1.73-1.41,2.97-.02,1.29,2.04,1.81,2.33.43Zm5.87,1.09c.29-.83.59-1.66.88-2.49.51-1.45-1.85-2.21-2.27-.73-.24.85-.48,1.69-.72,2.54-.39,1.37,1.63,2.02,2.11.68Zm-3.7,14.84c.33-.8.53-1.69.77-2.52.58-2.03-2.71-2.62-2.82-.52-.05.87-.15,1.77-.1,2.65.07,1.25,1.66,1.6,2.16.4Zm14.47,2.87l.35-1.08c.5-1.57-1.93-2.35-2.43-.78l-.35,1.08c-.5,1.57,1.93,2.35,2.43.78Zm-6.29-1.7c.14-.75.28-1.51.42-2.26.25-1.37-2.06-1.56-2.21-.12-.08.76-.16,1.52-.25,2.27-.15,1.34,1.81,1.36,2.04.11Zm6.37-5.77c.02-.2.05-.39.07-.59.24-2-3.23-1.96-2.86.22.03.19.06.39.1.58.27,1.59,2.52,1.27,2.69-.2Zm7.95,11.25l.22-1.31c.31-1.84-2.58-1.97-2.89-.16l-.22,1.31c-.31,1.84,2.58,1.97,2.89.16Zm-1.2-7.32l.23-.72c.33-1.04-1.29-1.57-1.62-.52l-.23.72c-.33,1.04,1.29,1.57,1.62.52Zm7.07,1.39c-.7-1.36-2.82-.28-2.12,1.09.7,1.36,2.82.28,2.12-1.09Zm2.3-14.98c-.45-.88-1.82-.18-1.36.7.45.88,1.81.18,1.36-.7Zm1,9.8l.23-.72c.5-1.57-1.93-2.35-2.43-.78l-.23.72c-.5,1.57,1.93,2.35,2.43.78Zm-3.99-.69l.58-1.79c.33-1.04-1.29-1.57-1.62-.52l-.58,1.79c-.33,1.04,1.29,1.57,1.62.52Zm-25.35,24.27c.25-1.51.5-3.02.75-4.53.21-1.28-1.87-1.42-2.04-.11-.19,1.51-.38,3.03-.58,4.54-.15,1.21,1.68,1.27,1.87.1Zm-8.87-11.27c-.75-1.46-3.02-.3-2.27,1.17.75,1.46,3.02.3,2.27-1.17Zm-3.92-9.19c.12-.83.25-1.66.37-2.5.29-1.93-3.03-2.17-3.06-.17-.01.84-.02,1.68-.03,2.52-.02,1.78,2.46,1.86,2.72.15Zm7.69,12.93c.28-1.3.55-2.59.83-3.89.38-1.8-2.26-2.3-2.49-.46-.17,1.32-.33,2.63-.5,3.95-.16,1.23,1.9,1.63,2.16.4Zm-10.46,2.23c.06-.71.12-1.43.18-2.14.14-1.76-2.72-1.9-2.72-.15,0,.72,0,1.43,0,2.15,0,1.64,2.42,1.78,2.55.14Zm7.84-13.09l.11-.96c.17-1.53-2.21-1.65-2.38-.13l-.11.95c-.17,1.53,2.21,1.65,2.38.13Zm-16.07-2.27c.15-.81.3-1.62.45-2.43.4-2.15-2.86-2.52-2.82-.52.02.84.03,1.68.05,2.52.02,1.25,2.06,1.84,2.33.43Zm6.46-9.36c-.75-1.46-3.02-.3-2.27,1.17.75,1.46,3.02.3,2.27-1.17Zm10.94,7.04c.54-1.56.78-3.19.69-4.84-.09-1.52-2.47-1.66-2.38-.13.08,1.47-.1,2.85-.58,4.24-.5,1.45,1.77,2.18,2.27.73Zm-15.93-8.14c-.04-.6-.07-1.2-.11-1.79-.06-1.07-1.66-1.21-1.7-.09-.02.59-.04,1.19-.06,1.78-.04,1.23,1.94,1.28,1.87.1Zm4.42-3.08c.28-1.03.55-2.07.83-3.1.28-1.06-1.34-1.58-1.62-.52-.27,1.03-.55,2.07-.83,3.1-.28,1.06,1.34,1.58,1.62.52Zm-13.48,6.95c.2-.66.41-1.32.62-1.98.57-1.84-2.38-2.49-2.66-.49-.09.68-.19,1.36-.28,2.04-.19,1.36,1.93,1.7,2.33.43Zm3.1-5.31c.88-1.17,1.06-2.68,1-4.11-.05-1.18-1.86-1.33-1.87-.1-.02,1.22-.4,2.32-.66,3.5-.21.95.93,1.51,1.53.72Zm-6.55-4.31c.33-.95.67-1.9,1-2.84.55-1.55-1.97-2.36-2.43-.78-.28.97-.56,1.93-.84,2.9-.43,1.48,1.76,2.18,2.27.73Zm-.74-6.94c.24-.37.48-.74.73-1.11.8-1.22-1.35-2.3-1.84-.86-.14.42-.28.83-.42,1.25-.31.92,1,1.52,1.53.72Zm4.96,4.21c.37-.66.75-1.33,1.12-1.99.77-1.38-1.3-2.4-1.99-.93-.32.69-.64,1.38-.97,2.07-.49,1.05,1.27,1.87,1.84.86Zm-3.79-10.59l.47-.84c.48-.86-.81-1.69-1.29-.82l-.47.84c-.48.86.81,1.69,1.29.82Zm-9.75,15.07c.4-1.26.79-2.52,1.19-3.77.37-1.17-1.52-1.74-1.78-.57-.29,1.29-.58,2.59-.87,3.88-.21.95,1.16,1.43,1.46.47Zm2.73-7.24c.15-.68.3-1.35.45-2.03.17-.74-.97-1.11-1.14-.36-.15.68-.3,1.35-.45,2.03-.17.74.97,1.11,1.14.36Zm.98,11.99c.43-1.02.66-2.08.69-3.2.03-1.22-1.9-1.3-1.87-.1.03.97-.11,1.86-.44,2.78-.38,1.05,1.2,1.51,1.62.52Zm-6.22,4.93c.47-1.42.69-2.87.66-4.37-.02-1.1-1.77-1.17-1.7-.09.08,1.36-.05,2.68-.42,3.99-.27.95,1.15,1.41,1.46.47Zm9.96,4.98l.34-1.67c.26-1.28-1.69-1.91-1.95-.63l-.34,1.67c-.26,1.28,1.69,1.91,1.95.63Zm-6.69,3.38c.02-1.71.04-3.42.05-5.13.01-.98-1.49-1.07-1.53-.08-.07,1.71-.15,3.41-.22,5.12-.05,1.1,1.69,1.19,1.7.09Zm7.6-12.39c.06-.31.13-.62.19-.93.28-1.36-1.8-1.66-1.83-.34,0,.32-.02.64-.02.96-.02.92,1.46,1.29,1.66.31Zm3.97,15.72c.16-.95.33-1.9.49-2.86.2-1.16-1.81-1.33-1.87-.1-.05.96-.1,1.92-.15,2.87-.05,1.01,1.37,1.03,1.53.08Zm-5.69,8.42l.32-3.46c.11-1.2-1.76-1.3-1.87-.1-.11,1.15-.21,2.31-.32,3.46-.11,1.2,1.76,1.3,1.87.1Zm-4.14-3.07l-.29-4.05c-.07-.97-1.6-1.07-1.53-.08l.29,4.05c.07.97,1.6,1.07,1.53.08Zm5.16-7.28c-.5-.97-2.02-.2-1.51.78.5.97,2.02.2,1.51-.78Zm7.41-6.32l.1-1.55c.07-1.1-1.63-1.19-1.7-.09l-.1,1.55c-.07,1.1,1.63,1.19,1.7.09Zm2.81,12.77c-.5-.97-2.02-.2-1.51.78.5.97,2.02.2,1.51-.78Zm6.41-8.59c.29-1.29.58-2.59.87-3.88.19-.84-1.03-1.27-1.3-.42-.4,1.26-.79,2.52-1.19,3.77-.33,1.06,1.39,1.58,1.62.52Zm-1.34,6.89c.54-1.17.82-2.38.88-3.66.04-.88-1.28-.94-1.36-.07-.1,1.09-.39,2.11-.9,3.09-.51.97.91,1.66,1.38.65Zm-5.25-1.32c.14-1.47.28-2.94.43-4.42.1-1.09-1.6-1.18-1.7-.09l-.42,4.42c-.11,1.09,1.6,1.18,1.7.09Zm10.69.1c.37-1.04.55-2.1.52-3.2-.03-.97-1.5-1.08-1.53-.08-.03.98-.23,1.87-.61,2.77-.42,1,1.25,1.56,1.62.52Zm-7.89,13.6c-.02-.95.07-1.86.31-2.77.47-1.76-2.21-2.31-2.49-.46-.18,1.14-.16,2.26,0,3.4.16,1.23,2.22,1.09,2.19-.17Zm-6.83-5.66c.3-1.22.43-2.44.34-3.7-.09-1.19-1.96-1.3-1.87-.1.08,1.09.01,2.16-.25,3.23-.29,1.17,1.49,1.75,1.78.57Zm-3.78-2.4c.27-1.3.15-2.49-.43-3.68-.43-.89-1.79-.19-1.36.7.39.81.52,1.63.33,2.52-.2.96,1.26,1.43,1.46.47Zm-1.16,9.59c-.33-1.13-.5-2.25-.47-3.43.03-1.21-1.79-1.31-1.87-.1-.09,1.34.02,2.65.34,3.95.32,1.29,2.37.83,2-.42Zm5.02,3.41c-.09-1.15-.18-2.3-.27-3.46-.1-1.31-2.1-.88-2,.42.09,1.15.18,2.3.27,3.46.1,1.31,2.1.88,2-.42Zm1.6-4.07l.09-2.15c.03-.77-1.16-.83-1.19-.07l-.09,2.15c-.03.77,1.16.83,1.19.07Zm3.43,10.07c-.35-1.05-.49-2.08-.39-3.18.07-.87-1.33-.95-1.36-.07-.04,1.28.17,2.46.64,3.65.24.62,1.33.24,1.11-.39Zm6.19-7.42c.1-1.03.19-2.07.29-3.1.1-1.09-1.66-1.19-1.7-.09-.04,1.04-.08,2.07-.12,3.11-.04.99,1.44,1.06,1.53.08Zm-.83-9.17c.34-1.27.38-2.53.05-3.8-.27-1.06-1.88-.73-1.67.35.2.99.15,1.92-.17,2.88-.37,1.15,1.47,1.74,1.78.57Zm10.79,8.37c-.13-1.03-.11-2.07.1-3.09.29-1.45-1.84-1.84-1.99-.37-.13,1.28-.05,2.55.23,3.81.24,1.08,1.8.73,1.67-.35Zm10.77-15.88c.07-.84.14-1.67.21-2.51.07-.88-1.29-.95-1.36-.07-.07.84-.14,1.67-.21,2.51-.07.88,1.29.95,1.36.07Zm5.83,1.98c.06-.71.12-1.43.18-2.14.12-1.43-2.21-1.54-2.21-.12v2.15c-.01,1.31,1.92,1.43,2.03.11Zm4.64,4.71c.04-1.23.07-2.47.11-3.7.03-.99-1.46-1.07-1.53-.08-.09,1.23-.19,2.46-.28,3.69-.08,1.1,1.67,1.19,1.7.09Zm12.07-2.23l.58-1.79c.27-.84-1.03-1.25-1.3-.42l-.58,1.79c-.27.84,1.03,1.25,1.3.42Zm3.48-4.23c.27-.97.55-1.93.82-2.9.18-.63-.76-.94-.97-.31-.33.95-.66,1.9-.98,2.85-.25.73.93,1.1,1.14.36Zm-10.51,11.96c.74-1.22,1.13-2.56,1.11-4-.03-1.42-2.24-1.55-2.21-.12.02,1.07-.21,2.02-.76,2.93-.74,1.21,1.13,2.41,1.87,1.19Zm-4.65,3.36c.37-1.05.43-2.14.13-3.21-.44-1.59-2.72-1.11-2.5.52.07.51,0,1.01-.23,1.47-.96,1.86,1.9,3.19,2.6,1.22Zm-6.8,1.77l.77-3.71c.29-1.38-1.82-2.07-2.11-.68l-.77,3.71c-.29,1.38,1.82,2.07,2.11.68Zm-11.11,6.29c.57-.86.6-2.07.79-3.07.18-.96-1.28-1.44-1.46-.47-.2,1.07-.65,2.27-.41,3.34.11.51.8.63,1.09.2Zm5.74-2.58l.36-2.26c.24-1.52-2.14-1.63-2.38-.13-.12.75-.24,1.51-.36,2.26-.24,1.52,2.14,1.63,2.38.13Zm-4.4-9.26l.09-2.74c.04-1.21-1.83-1.31-1.87-.1l-.09,2.74c-.04,1.21,1.83,1.31,1.87.1Zm-9.57,7.51c-.16-.82-.15-1.59.05-2.4.25-1-1.08-1.72-1.68-.79-.69,1.05-1.06,2.17-1.23,3.41-.28,2.01,3.3,1.95,2.86-.22Zm2.7,5.41c.48-.88.28-1.91.4-2.88.1-.74-1.07-1.14-1.41-.45-.51,1.04-1.08,2.12-.61,3.26.26.64,1.3.67,1.62.08Zm-.34-15.78l.77-3.51c.28-1.26-1.6-1.91-1.95-.63-.31,1.15-.62,2.3-.94,3.46-.38,1.39,1.8,2.05,2.11.68Zm-7.31,14.98c-.09-.58-.18-1.16-.26-1.74-.18-1.21-1.87-.93-2.02.15-.08.59-.16,1.18-.24,1.77-.24,1.74,2.82,1.75,2.53-.19Zm17.32.29c-.46-1.19-2.31-.46-2.07.73.15.76-.2,1.41-.04,2.15.18.84,1.2,1.15,1.83.59,1-.88.7-2.36.27-3.48Zm8.19-.61c-.02-.64-.03-1.28-.05-1.92-.02-.9-1.42-1.31-1.66-.31-.15.61-.3,1.22-.45,1.83-.4,1.64,2.2,1.93,2.16.4Zm9.13-6.31l.22-1.31c.18-1.08-1.52-1.16-1.7-.09l-.22,1.31c-.18,1.08,1.52,1.16,1.7.09Z"/></g></svg>