<?xml version="1.0" encoding="UTF-8"?><svg id="_レイヤー_2" xmlns="http://www.w3.org/2000/svg" xmlns:xlink="http://www.w3.org/1999/xlink" viewBox="0 0 415.33 171.87"><defs><style>.cls-1,.cls-2,.cls-3{fill:none;}.cls-4{clip-path:url(#clippath);}.cls-2{stroke:#f8b200;stroke-linecap:round;stroke-linejoin:round;stroke-width:.39px;}.cls-5{fill:#f3f3f2;}.cls-6{fill:#f8b200;}.cls-7{fill:#0053a5;}.cls-8{fill:#e6e2e8;}.cls-9{fill:#009e71;}.cls-10{fill:#cd66a3;}.cls-11{fill:#e23b37;}.cls-12{fill:#31313b;}.cls-13{clip-path:url(#clippath-1);}.cls-3{isolation:isolate;opacity:.2;stroke:#0053a5;stroke-miterlimit:10;stroke-width:.66px;}</style><clipPath id="clippath"><rect class="cls-1" width="415.33" height="171.87"/></clipPath><clipPath id="clippath-1"><path class="cls-1" d="m203.43,121.3c6.85,1.61,11.09,8.46,9.49,15.31-1.61,6.85-8.46,11.09-15.31,9.49-6.85-1.61-11.09-8.46-9.49-15.31,1.61-6.85,8.46-11.09,15.31-9.49Z"/></clipPath></defs><g id="_レイヤー_2-2"><g id="_レイヤー_1-2"><rect class="cls-7" width="415.33" height="171.87"/><g class="cls-4"><path class="cls-9" d="m351.29,203.19c7.36-3.85,12.09-12.22,11.59-20.5s-6.21-16.02-13.99-18.96c-8.3-3.13-18.12-1.07-25.9-5.32-5.59-3.05-9.06-8.78-12.89-13.87-12.57-16.7-45.45-40.87-64.54-35.42-2.65.76-13.45,1.93-15.9,3.2-6.36,3.29-2.26,30.46,8.23,34.49,3.41,1.31,4.73,6.41,3.5,9.84-1.67,4.69-9.45,6.4-8.84,11.34,10.88,3.01,17.24,13.9,25.65,21.42,17.48,15.62,43.33,16.21,66.78,15.95"/><path class="cls-5" d="m116.47,41.17c3.98,7.29,12.43,11.87,20.7,11.22,8.27-.65,15.91-6.5,18.71-14.32,2.98-8.35.75-18.14,4.86-25.99,2.95-5.64,8.62-9.22,13.64-13.14,16.48-12.87,40.06-46.16,34.27-65.15-.8-2.64-2.17-13.42-3.48-15.84-3.4-6.3-30.49-1.72-34.34,8.84-1.25,3.43-6.32,4.84-9.78,3.68-4.72-1.59-6.56-9.34-11.5-8.64-2.81,10.93-13.59,17.49-20.96,26.03-15.31,17.76-15.44,43.61-14.76,67.06"/><ellipse class="cls-10" cx="404.51" cy="119.02" rx="29.61" ry="29.58"/><path class="cls-10" d="m78.38-3.8c-.71-.36-1.24-1.01-1.43-1.8-.1-.43-.06-.9.17-1.29.08-.1.15-.2.23-.3-.03.04-.07.09-.14.18.07-.25.26-.37.47-.44-.02,0-.01,0,.04-.04.52-.33,1.17-.27,1.69,0,.77.4,1.19.95,1.47,1.77.51,1.5-1.28,2.55-2.51,1.93h0Zm6.77-6.04c-.71-.83-1.22-1.32-2.33-1.41-.49-.04-.82.42-.85.85-.09,1.13.48,1.75,1.18,2.57,1.19,1.4,3.19-.62,2.01-2.01h-.01Zm5.35,7.97c-.3-.44-.43-.88-.89-1.19-.35-.24-.67-.25-1.07-.33-.18-.04-.43-.02-.55.15-.39.5-.62.97-.45,1.62.23.83.93,1.14,1.67,1.43.91.35,1.83-.88,1.28-1.67h.01Zm4.75-8.05c-.38-.73-.91-1.39-1.39-2.07-.56-.79-2.06-.35-1.69.71.3.86.57,1.76.99,2.57.71,1.38,2.8.16,2.09-1.22h0Zm-5.47-2.43c-.48-.31-.96-.63-1.43-.94-.7-.46-1.39.54-.86,1.12.39.43.78.85,1.17,1.28.88.95,2.28-.69,1.12-1.45h0Zm-14.67,18.41c-.4-.87-1.12-1.3-1.86-1.86-.66-.51-1.67.5-1.17,1.17.57.75.99,1.46,1.86,1.86.79.37,1.54-.37,1.17-1.17Zm.35-7.41l-.67-.89c-.76-1.01-2.49-.02-1.72,1l.67.89c.76,1.01,2.49.02,1.72-1Zm8.58,5.31c-.86-.7-1.73-1.39-2.59-2.09-.74-.6-2.13.2-1.45,1.12.64.87,1.28,1.73,1.92,2.6,1.24,1.68,3.55-.49,2.12-1.64h0Zm9.38,4.65c-.48-.48-.96-.97-1.44-1.45-.71-.72-2.1.26-1.45,1.12l1.22,1.62c.93,1.25,2.75-.21,1.68-1.29h-.01Zm5.33-4.69c-.39-.84-1.16-1.32-1.86-1.89-1.25-1.01-3.03.65-1.81,1.81.74.7,1.38,1.44,2.38,1.75,1.03.31,1.67-.82,1.28-1.67h.01Zm-.48-6.64c-.28-.79-.66-1.45-1.2-2.09-1-1.19-2.7.52-1.71,1.71.26.31.45.65.58,1.02.52,1.45,2.86.83,2.33-.64Zm-12.78,1.25c-.43-.39-.86-.78-1.29-1.16-1.05-.95-2.36.68-1.21,1.56.46.35.91.7,1.37,1.05.83.64,1.89-.75,1.12-1.45h0Zm20.28-7.36l-2.43-2.25c-.87-.81-2.18.5-1.31,1.31l2.43,2.25c.87.81,2.18-.5,1.31-1.31Zm-6.76-4.49c-.26-.35-.53-.69-.79-1.04-.61-.8-1.78-.14-1.35.79.18.39.36.79.55,1.18.5,1.09,2.32.01,1.6-.93h-.01Zm-5.38-1.85l-1.12-.89c-.78-.62-1.89.48-1.11,1.1l1.12.89c.78.62,1.89-.48,1.11-1.11h0Zm9.38,11.2c-.35-.53-.7-1.06-1.05-1.59-.72-1.09-2.49.01-1.72,1,.39.51.78,1.01,1.17,1.52.7.91,2.27.09,1.6-.93Zm-11.31-2.38c-.24-.28-.48-.56-.72-.84-.37-.43-1.09.13-.78.6.2.31.4.62.61.93.45.68,1.44-.06.89-.69Zm-22.26,19.03c-.41-.91-1.22-1.32-2.15-1.58-1.06-.29-1.8,1.3-.77,1.82.57.29,1.04.75,1.55,1.12.9.64,1.72-.56,1.36-1.36h0Zm-2.65-8.16l-.67-.67c-.84-.84-2.15.46-1.31,1.31l.67.67c.84.84,2.15-.46,1.31-1.31Zm3.58-5.3c-.34-.51-.62-.62-1.19-.82-.4-.14-.84.3-.7.7.2.57.31.85.82,1.19.64.43,1.5-.43,1.07-1.07Zm4.38-5.99c-.46-.43-.92-.86-1.39-1.28-.74-.68-1.79.37-1.11,1.11l1.29,1.38c.75.81,2.01-.46,1.21-1.21Zm5.43-4.53c-.37-.3-.74-.59-1.11-.89-.99-.79-2.41.61-1.41,1.41.37.3.74.59,1.11.89.99.79,2.41-.61,1.41-1.41Zm3.29,23.76c-.28-.38-.55-.77-.83-1.15-.9-1.24-2.7.13-1.68,1.29.31.35.63.71.94,1.06.74.83,2.23-.28,1.56-1.21h.01Zm-4.19-5.51l-1.06-1.16c-.62-.68-1.68.39-1.01,1,.39.35.78.71,1.16,1.06.61.56,1.46-.3.91-.9Zm-1.68,8.35c-.43-.54-.86-1.07-1.29-1.61-.67-.84-1.96.39-1.21,1.21l1.39,1.51c.7.76,1.72-.34,1.11-1.1h0Zm-5.52-6.28l-.45-.44c-.78-.78-1.99.43-1.21,1.21l.45.44c.78.78,1.98-.43,1.21-1.21Zm-1.37,12.48c-.68-.58-1.35-1.17-2.03-1.75-1.03-.89-2.55.61-1.51,1.51.68.58,1.35,1.17,2.03,1.75,1.03.89,2.55-.61,1.51-1.51Zm-4.63-5.21l-1.34-.89c-.84-.56-1.62.79-.79,1.35l1.34.89c.84.56,1.62-.79.79-1.35Zm10.47,4.45l-1.78-1.33c-.81-.6-1.59.75-.79,1.35l1.78,1.33c.81.6,1.59-.75.79-1.35Zm12.46-7.27l-1.11-1.11c-.78-.78-1.98.43-1.21,1.21l1.11,1.11c.78.78,1.98-.43,1.21-1.21Zm.1-5.22c-.45-.36-.98-.8-1.32-1.28-.53-.75-1.85-.32-1.56.66.29.99.76,1.69,1.67,2.18.95.51,2.13-.82,1.21-1.56Zm3.05-3.94c-.5-.53-1.01-1.07-1.51-1.6-.88-.93-2.35.53-1.41,1.41.54.5,1.08,1,1.61,1.5.87.81,2.13-.44,1.31-1.31Zm9.61,8.41c-.47-.56-1.05-1.04-1.58-1.53-1.28-1.2-2.98,1.01-1.46,1.9.63.37,1.26.79,1.93,1.09.96.42,1.82-.62,1.12-1.45h0Zm7.65-9.64l-.67-.67c-.97-.97-2.48.54-1.51,1.51l.67.67c.97.97,2.48-.54,1.51-1.51Zm-3.66,4.02c-.51-.39-1.02-.78-1.52-1.17-.92-.71-1.94.93-.93,1.59.53.35,1.06.7,1.59,1.05.94.62,1.7-.82.86-1.47Zm-1.85-6.93c-.14-.09-.27-.19-.41-.28-1.39-.94-2.69,1.65-.93,2.21.16.05.31.1.47.15,1.28.41,1.9-1.38.88-2.08h-.01Zm11.39-1.61l-.89-.67c-1.25-.93-2.45,1.16-1.22,2.09l.89.67c1.25.93,2.45-1.16,1.22-2.09Zm-5.9-1.91l-.45-.44c-.65-.65-1.65.36-1.01,1l.45.44c.65.65,1.65-.36,1.01-1Zm3.73-4.72c-1.28,0-1.28,1.99,0,1.99s1.28-1.99,0-1.99Zm-10.24-7.43c-.82,0-.82,1.28,0,1.28s.83-1.28,0-1.28Zm7.66,3l-.45-.44c-.97-.97-2.48.54-1.51,1.51l.45.44c.97.97,2.48-.54,1.51-1.51Zm-2.03,2.7l-1.11-1.11c-.65-.65-1.65.36-1.01,1l1.11,1.11c.65.65,1.65-.36,1.01-1Zm8.35,28.08c-1.03-.76-2.05-1.52-3.08-2.29-.87-.65-1.77.85-.86,1.47,1.05.72,2.1,1.44,3.15,2.16.84.58,1.58-.76.79-1.35h0Zm-11.75,2.28c-1.37,0-1.38,2.13,0,2.13s1.37-2.13,0-2.13Zm-8.32-.6c-.57-.41-1.14-.82-1.71-1.23-1.33-.95-2.77,1.42-1.29,2.21.62.33,1.24.66,1.86.99,1.31.7,2.32-1.12,1.15-1.96h-.01Zm12.54-.77c-.86-.7-1.71-1.4-2.57-2.1-1.19-.97-2.57.8-1.29,1.67.91.63,1.83,1.25,2.74,1.88.86.59,1.94-.78,1.12-1.45Zm-2.33,8.61c-.51-.32-1.02-.63-1.52-.95-1.25-.78-2.45,1.29-1.15,1.96.53.28,1.06.55,1.6.83,1.22.63,2.25-1.11,1.08-1.84h-.01Zm-6.73-10.82l-.67-.44c-1.07-.71-2.07,1.01-1.01,1.72l.67.44c1.07.71,2.07-1.01,1-1.72h.01Zm-7.82,11.05c-.54-.42-1.09-.84-1.63-1.26-1.44-1.12-2.96,1.16-1.47,1.9.63.31,1.26.62,1.89.93.94.46,2.16-.83,1.21-1.56h0Zm-4.49-8.37c-1.37,0-1.38,2.13,0,2.13s1.37-2.13,0-2.13Zm9.4-5.43c-.95-1-2.07-1.8-3.33-2.36-1.16-.52-2.17,1.2-1,1.72,1.12.5,2.08,1.16,2.93,2.05.89.93,2.29-.48,1.41-1.41h-.01Zm-12.12,8.71c-.46-.2-.91-.4-1.37-.61-.82-.36-1.54.77-.72,1.23.43.24.87.49,1.3.73.9.5,1.69-.95.79-1.35Zm-.6-4.46c-.66-.6-1.33-1.2-1.99-1.8-.68-.61-1.69.39-1.01,1,.66.6,1.33,1.2,1.99,1.8.68.61,1.69-.39,1.01-1Zm.02,12.66c-.41-.4-.82-.81-1.24-1.21-1.15-1.13-2.76.82-1.38,1.79.47.33.94.66,1.41.99.94.66,2-.78,1.21-1.56h0Zm-2.76-4.33c-.53-1.1-1.58-1.81-2.67-2.31-.9-.41-1.69.87-.79,1.35.9.48,1.57,1.18,2.35,1.83.62.52,1.48-.12,1.12-.86h-.01Zm-5.7,3.22c-.58-.61-1.15-1.22-1.73-1.83-.94-1-2.51.56-1.51,1.51.61.58,1.22,1.15,1.83,1.73.93.88,2.29-.47,1.41-1.41Zm-5.43-2.1c-.18-.32-.36-.64-.55-.96-.6-1.06-2.22.13-1.34,1.03.26.26.51.53.77.79.57.58,1.51-.16,1.12-.86Zm5.02-2.07c-.35-.53-.7-1.06-1.05-1.59-.73-1.1-2.28.05-1.45,1.12.39.5.78,1,1.17,1.51.59.76,1.87-.23,1.34-1.03h0Zm-9.31-1.23l-.45-.67c-.45-.68-1.56-.04-1.11.65l.45.67c.45.68,1.56.04,1.11-.65Zm7.47,12.99c-.78-.77-1.57-1.55-2.35-2.32-.73-.72-1.87.47-1.11,1.11.85.71,1.7,1.42,2.55,2.12.62.52,1.5-.31.91-.9h0Zm-4.33-4.79c-.44-.37-.89-.74-1.34-1.11-.49-.41-1.2.29-.7.7.45.37.89.74,1.34,1.11.49.41,1.2-.29.7-.7Zm9.28,3.85c-.59-.71-1.3-1.28-2.11-1.73-.89-.49-1.69.92-.79,1.35.73.35,1.34.79,1.89,1.39.63.68,1.58-.31,1.01-1h0Zm1.29,6.5c-.88-.89-1.87-1.61-2.99-2.16-.83-.4-1.54.86-.72,1.23,1.04.46,1.97,1.06,2.8,1.84.6.56,1.49-.32.91-.9h0Zm7.5-5.49l-1.11-.89c-.85-.68-2.06.52-1.21,1.21l1.11.89c.85.68,2.06-.52,1.21-1.21Zm-.04,6.26c-1.26-.67-2.53-1.33-3.79-2-.73-.38-1.36.69-.65,1.1,1.24.71,2.48,1.41,3.72,2.12.8.46,1.53-.8.72-1.23h0Zm-6.3-10.37c-.21-.16-.41-.33-.62-.49-.91-.73-1.92.7-.95,1.23.23.13.47.26.7.38.68.37,1.52-.59.86-1.12h.01Zm13.19,3.06c-.64-.49-1.29-.97-1.93-1.46-.79-.59-1.68.83-.79,1.35.69.4,1.38.81,2.08,1.21.73.43,1.29-.62.65-1.1h-.01Zm4.08,7.44l-2.45-1.56c-.85-.54-1.64.81-.79,1.35.82.52,1.63,1.04,2.45,1.56.85.54,1.64-.81.79-1.35Zm-3.86,1.9l-3.12-1.33c-.75-.32-1.4.78-.65,1.1l3.12,1.33c.75.32,1.4-.78.65-1.1Zm-3.44-6.61c-.92,0-.92,1.42,0,1.42s.92-1.42,0-1.42Zm-1.87-7.91l-1.11-.67c-.79-.47-1.5.76-.72,1.23l1.11.67c.79.47,1.5-.76.72-1.23Zm10.55,2.79c-.92,0-.92,1.42,0,1.42s.92-1.42,0-1.42Zm-3.94-8.04c-.85-.71-1.7-1.42-2.55-2.12-.55-.46-1.33.28-.8.8.78.78,1.57,1.55,2.35,2.33.66.65,1.7-.43,1.01-1h0Zm4.61,3.63c-.66-.84-1.45-1.52-2.38-2.05-.64-.37-1.19.59-.57.98.77.49,1.42,1.1,1.95,1.84.53.75,1.58-.04,1.01-.77h-.01Zm-2.98,3.39c-1.04-.67-2.08-1.33-3.12-2-.77-.5-1.49.73-.72,1.23l3.12,2c.77.5,1.49-.73.72-1.23Zm4.15-7.89c-.63-.67-1.35-1.21-2.18-1.61-.73-.35-1.38.7-.65,1.1.71.39,1.3.88,1.82,1.51.58.7,1.64-.33,1.01-1Zm7.09,11.05c-.71-.35-1.35-.76-1.94-1.29-1.13-1.02-2.56.76-1.29,1.67.78.56,1.62.98,2.52,1.31.98.35,1.66-1.23.71-1.69h0Zm-6.81,2.91c-.79-.69-1.65-1.25-2.62-1.66-.92-.39-1.71.96-.79,1.35.84.36,1.61.81,2.3,1.42.76.66,1.87-.44,1.11-1.11Zm-3.23,1.89c-.86-.7-1.79-1.06-2.9-1.09-.82-.02-.82,1.26,0,1.28.75.02,1.41.24,1.99.72.63.52,1.54-.38.91-.9h0Zm6.68,4.52c-.97-.18-1.86-.49-2.73-.97-.88-.48-1.65.83-.79,1.35.96.58,1.97,1,3.06,1.26,1.08.26,1.52-1.44.45-1.64h0Zm4.44-2.42c-.89-.37-1.78-.75-2.67-1.12-1.01-.42-1.45,1.22-.45,1.64.89.37,1.78.75,2.67,1.12,1.01.42,1.45-1.22.45-1.64Zm-2.42-2.75l-1.56-.89c-.56-.32-1.06.54-.5.86l1.56.89c.56.32,1.06-.54.5-.86Zm8.79,1.3c-.91-.14-1.73-.43-2.51-.92-.62-.39-1.21.62-.57.98.93.52,1.89.81,2.95.92.55.06.69-.89.13-.98Zm-3.15-7.43c-.73-.47-1.46-.93-2.19-1.4-.77-.49-1.52.78-.72,1.23.75.42,1.51.85,2.26,1.27.72.41,1.34-.66.65-1.1h0Zm-7.12-2.89c-.81-.74-1.73-1.24-2.8-1.49-.89-.21-1.26,1.12-.38,1.37.81.23,1.48.63,2.08,1.23.71.72,1.85-.43,1.11-1.1h0Zm10.33-4.81c-.82-.3-1.58-.71-2.26-1.25-.96-.77-2.07.66-1.03,1.34.9.59,1.87,1.01,2.91,1.28.9.23,1.23-1.06.38-1.37h0Zm-7.69-14.05l-1.78-1.12c-.62-.39-1.19.59-.57.98.59.37,1.19.74,1.78,1.12.62.39,1.19-.59.57-.98Zm3.7-3.57c-.51-.32-1.02-.63-1.52-.95-1.01-.63-1.99,1.05-.93,1.59.53.28,1.06.55,1.59.83.97.51,1.8-.89.86-1.47Zm5.27-1.65c-.9-.5-1.81-1-2.71-1.5-.72-.4-1.35.67-.65,1.1.88.54,1.76,1.08,2.64,1.62.78.48,1.52-.78.72-1.23h0Zm2.94-9.81l-1.11-1.11c-.52-.52-1.32.29-.8.8l1.11,1.11c.52.52,1.32-.29.8-.8Zm-1.81-4.2c-.61-.57-1.23-1.15-1.84-1.72-.4-.37-.98.21-.6.6.58.61,1.16,1.21,1.74,1.82.44.46,1.17-.27.7-.7Zm4.87,12.37c-.62-1.02-1.47-1.82-2.55-2.35-1.06-.52-2,1.07-.93,1.59.8.39,1.42.92,1.88,1.69.62,1.01,2.22.09,1.6-.93h0Zm.72,4.73c-.63-.68-1.43-1.13-2.33-1.32-1.35-.29-1.86,1.6-.57,2.06.4.14.75.38,1,.73,1.02,1.42,3.1-.19,1.9-1.46h0Zm-1.28,5.72l-2.46-1.99c-.92-.74-2.23.56-1.31,1.31l2.46,1.99c.92.74,2.23-.56,1.31-1.31Zm.43,10.65c-.42-.75-1.31-1.23-1.98-1.76-.64-.5-1.56.4-.91.9.72.55,1.44,1.35,2.33,1.58.42.11.77-.35.56-.73h0Zm.27-5.25l-1.54-1.13c-1.03-.76-2.03.97-1,1.72.51.38,1.03.76,1.54,1.13,1.03.76,2.03-.97,1-1.72Zm-8.56-.28l-2-1.11c-.88-.49-1.67.86-.79,1.35l2,1.11c.88.49,1.67-.86.79-1.35Zm1.93,9.97c-.67-.19-1.24-.49-1.77-.95-.65-.57-1.69.15-1.23.95.52.91,1.21,1.61,2.06,2.21,1.38.97,2.71-1.7.93-2.21h.01Zm5.05.06c-.47-.69-1.31-.93-1.99-1.4-.51-.35-1.26.36-.88.87.58.78,1.17,1.61,2.19,1.7.58.05.99-.71.68-1.18h0Zm-11.85-5.78l-2.31-1.91c-.83-.69-2.03.46-1.21,1.21.74.67,1.47,1.34,2.21,2.01.89.81,2.21-.55,1.31-1.31Zm8.34,11.14c-.46-.16-.93-.31-1.39-.47-.97-.33-1.41,1.03-.66,1.56.41.29.82.57,1.23.86,1.2.84,2.38-1.42.82-1.95Zm6.82-12.74c-1.06-.11-1.22,1.54-.25,1.81.62.18.97.68,1.59.85.69.19,1.31-.46,1.14-1.14-.27-1.08-1.49-1.42-2.48-1.53h0Zm2.68-6.31c-.48-.23-.97-.46-1.45-.7-.68-.33-1.51.55-.86,1.12.4.34.79.69,1.19,1.03,1.06.92,2.27-.89,1.12-1.45Zm-1.2-9.19l-.89-.67c-.73-.55-1.44.68-.72,1.23l.89.67c.73.55,1.44-.68.72-1.23Z"/><path class="cls-11" d="m169.18,25.37c2.19-1.58-.15-2.64-1.76-2.74-1.68-.11-3.54.35-5.15.07-.13-1.21,3.47-5.49,1.52-6.27-.91-.36-2.75,1.22-3.32,1.79-.81.8-1.14,2.29-2.12,2.84-.97-1.02-2.06-6.23-4.42-5.14-1.32.61-1.01,5.76-.36,6l.24.12c-1.12,0-2.31.12-3.42,0-.86-.09-2.75-.73-3.42.06-1.52,1.78,3.36,4.91,4.29,5.74-.59.97-7.57,3.71-4.7,4.68.89.3,2.48-.02,3.38-.12,1.19-.12,2.63-1.13,3.75-.95.22,2.32-1.48,4.61-1.75,6.98-.08.72.65,1.24,1.3.92,1.42-.7,2.51-2.96,3.19-3.96.77-1.12,1.12-.93,1.79.07.66.97,1.26,1.95,1.97,2.89.46.61.89,1.7,1.87,1.43.77-.22.99-1.56,1.04-2.25.08-1.09-.87-3.74.18-4.42,1.08-.7,3.71.63,4.84.69,2.48.12,1.13-1.96.33-3.1-.61-.87-1.12-1.41-2.02-2-.73-.47-1.84-.72-1.25-1.61.65-.98,3.03-1.01,4.01-1.72h0Z"/><path class="cls-6" d="m160.92,25.77c-.94-1-2.52-1.41-3.83-.87-1.34.55-1.74,1.46-1.57,2.51-.06.27-.09.56-.07.84.12,2.17,2.78,3.32,4.58,2.27,1.49-.87,2.15-3.42.89-4.75h0Z"/><path class="cls-6" d="m171.28,129.62l-.85-1.99c-.13-.31-.58-.31-.71,0l-.83,1.95c-.04.09-.11.17-.2.2l-1.99.85c-.31.13-.31.58,0,.71l1.95.83c.09.04.17.11.2.2l.85,1.99c.13.31.58.31.71,0l.83-1.95c.04-.09.11-.17.2-.2l1.99-.85c.31-.13.31-.58,0-.71l-1.95-.83c-.09-.04-.17-.11-.2-.2Z"/><path class="cls-6" d="m384.36,149.67l-.85-1.99c-.13-.31-.58-.31-.71,0l-.83,1.95c-.04.09-.11.17-.2.2l-1.99.85c-.31.13-.31.58,0,.71l1.95.83c.09.04.17.11.2.2l.85,1.99c.13.31.58.31.71,0l.83-1.95c.04-.09.11-.17.2-.2l1.99-.85c.31-.13.31-.58,0-.71l-1.95-.83c-.09-.04-.17-.11-.2-.2Z"/><path class="cls-6" d="m99.87,60.92l-.85-1.99c-.13-.31-.58-.31-.71,0l-.83,1.95c-.04.09-.11.17-.2.2l-1.99.85c-.31.13-.31.58,0,.71l1.95.83c.09.04.17.11.2.2l.85,1.99c.13.31.58.31.71,0l.83-1.95c.04-.09.11-.17.2-.2l1.99-.85c.31-.13.31-.58,0-.71l-1.95-.83c-.09-.04-.17-.11-.2-.2Z"/><path class="cls-6" d="m186.81,35.15l-.55-1.28c-.09-.2-.37-.2-.46,0l-.53,1.26c-.03.06-.07.11-.13.13l-1.28.55c-.2.09-.2.37,0,.46l1.26.54c.06.03.11.07.13.13l.55,1.28c.09.2.37.2.46,0l.54-1.26c.03-.06.07-.11.13-.13l1.28-.55c.2-.09.2-.37,0-.46l-1.26-.54c-.06-.03-.11-.07-.13-.13h0Z"/><path class="cls-6" d="m19.58,144.47l-.55-1.28c-.09-.2-.37-.2-.46,0l-.53,1.26c-.03.06-.07.11-.13.13l-1.28.55c-.2.09-.2.37,0,.46l1.26.54c.06.03.11.07.13.13l.55,1.28c.09.2.37.2.46,0l.54-1.26c.03-.06.07-.11.13-.13l1.28-.55c.2-.09.2-.37,0-.46l-1.26-.54c-.06-.03-.11-.07-.13-.13h-.01Z"/><path class="cls-6" d="m325.46,132.81l-.55-1.28c-.09-.2-.37-.2-.46,0l-.53,1.26c-.03.06-.07.11-.13.13l-1.28.55c-.2.09-.2.37,0,.46l1.26.54c.06.03.11.07.13.13l.55,1.28c.09.2.37.2.46,0l.54-1.26c.03-.06.07-.11.13-.13l1.28-.55c.2-.09.2-.37,0-.46l-1.26-.54c-.06-.03-.11-.07-.13-.13h-.01Z"/><path class="cls-6" d="m27.65,17.08l-.55-1.28c-.09-.2-.37-.2-.46,0l-.53,1.26c-.03.06-.07.11-.13.13l-1.28.55c-.2.09-.2.37,0,.46l1.26.54c.06.03.11.07.13.13l.55,1.28c.09.2.37.2.46,0l.54-1.26c.03-.06.07-.11.13-.13l1.28-.55c.2-.09.2-.37,0-.46l-1.26-.54c-.06-.03-.11-.07-.13-.13h-.01Z"/><path class="cls-6" d="m325.46,45.2l-.55-1.28c-.09-.2-.37-.2-.46,0l-.53,1.26c-.03.06-.07.11-.13.13l-1.28.55c-.2.09-.2.37,0,.46l1.26.53c.06.03.11.07.13.13l.55,1.28c.09.2.37.2.46,0l.54-1.26c.03-.06.07-.11.13-.13l1.28-.55c.2-.09.2-.37,0-.46l-1.26-.54c-.06-.03-.11-.07-.13-.13h-.01Z"/><path class="cls-6" d="m148.96,123.93l-.55-1.28c-.09-.2-.37-.2-.46,0l-.53,1.26c-.03.06-.07.11-.13.13l-1.28.55c-.2.09-.2.37,0,.46l1.26.53c.06.03.11.07.13.13l.55,1.28c.09.2.37.2.46,0l.54-1.26c.03-.06.07-.11.13-.13l1.28-.55c.2-.09.2-.37,0-.46l-1.26-.54c-.06-.03-.11-.07-.13-.13h0Z"/><path class="cls-6" d="m335.78,88.56l-.43-1.01c-.07-.16-.29-.16-.36,0l-.42.99s-.06.08-.1.1l-1.01.43c-.16.07-.16.29,0,.36l.99.42s.08.06.1.1l.43,1.01c.07.16.29.16.36,0l.42-.99s.06-.08.1-.1l1.01-.43c.16-.07.16-.29,0-.36l-.99-.42s-.08-.06-.1-.1Z"/><g id="a6"><path class="cls-5" d="m52.92,31.63c2.94-4.87,1.41-11.19-3.42-14.11s-11.13-1.33-14.08,3.54c-1.46,2.42-1.82,5.19-1.22,7.72.34,1.43.14,2.93-.62,4.19l-.1.17c-1.57,2.59-.73,5.97,1.86,7.53l.11.06c2.59,1.57,5.97.73,7.53-1.86v-.02c.78-1.28,2.06-2.17,3.51-2.52,2.58-.62,4.93-2.25,6.42-4.71h0Z"/><line class="cls-3" x1="35.59" y1="35.73" x2="40.6" y2="22.13"/><line class="cls-3" x1="38.45" y1="38.32" x2="49.12" y2="28.51"/><path class="cls-6" d="m33.49,32.98l9.59,5.79-1.88,3.12c-1.06,1.75-3.35,2.32-5.11,1.26l-2.9-1.75c-1.93-1.16-2.55-3.68-1.39-5.62l1.7-2.81h0Z"/><path class="cls-2" d="m40.2,22.54c.25.93,1.03,1.68,2.02,1.5.38-.07.74-.32.89-.68s0-.84-.35-.98c-.36-.14-.79.1-.95.45-.16.35-.12.77,0,1.14.43,1.32,1.81,2.26,3.2,2.17.6-.04,1.32-.46,1.2-1.05-.13-.6-1.1-.62-1.45-.11-.34.51-.18,1.21.14,1.74.41.67,1.13,1.19,1.91,1.19s2.11-.94,1.52-1.46c-.58-.51-1.63.88-1.34,1.59.3.71,1.64,1.05,2.22.53"/><path class="cls-5" d="m32.72,34.11c-.08-.1-.09-.24-.02-.36.09-.15.29-.2.43-.11.05.03,4.63,2.78,9.5,5.61.15.09.19.28.1.43-.09.15-.28.2-.43.12-4.88-2.84-9.46-5.59-9.51-5.62-.03-.02-.06-.04-.08-.07h.01Z"/><path class="cls-5" d="m31.98,35.36c-.08-.1-.09-.24-.02-.36.09-.15.29-.2.43-.11.05.03,4.63,2.78,9.5,5.61.15.09.19.28.1.43s-.28.2-.43.12c-4.88-2.84-9.46-5.59-9.51-5.62-.03-.02-.06-.04-.08-.07h.01Z"/><path class="cls-5" d="m31.33,36.51c-.08-.1-.09-.24-.02-.36.09-.15.29-.2.43-.11.05.03,4.63,2.78,9.5,5.61.15.09.19.28.1.43-.09.15-.28.2-.43.12-4.88-2.84-9.46-5.59-9.51-5.62-.03-.02-.06-.04-.08-.07h.01Z"/><path class="cls-5" d="m30.92,37.79c-.08-.1-.09-.24-.02-.36.09-.15.29-.2.43-.11.05.03,4.01,2.55,8.89,5.38.15.09.19.28.1.43-.09.15-.28.2-.43.12-4.88-2.84-8.85-5.36-8.9-5.39-.03-.02-.06-.04-.08-.07h.01Z"/></g><g id="a5"><path class="cls-6" d="m307.83,133.65c.64,9.89-6.86,18.43-16.75,19.08-9.89.64-18.43-6.86-19.08-16.75-.64-9.89,6.86-18.43,16.75-19.08,9.89-.64,18.43,6.86,19.08,16.75Z"/><path class="cls-11" d="m291.82,129.91c-.14.78-1.16,1.2-1.94,1.06s-1.3-.9-1.16-1.68.9-1.3,1.68-1.16,1.56,1,1.42,1.78Z"/><path class="cls-11" d="m298.06,139.25c-.14.78-.9,1.3-1.68,1.16s-1.3-.9-1.16-1.68c.14-.78.9-1.3,1.68-1.16s1.3.9,1.16,1.68Z"/><path class="cls-11" d="m287.93,149.87c-.14.78-.9,1.3-1.68,1.16s-1.3-.9-1.16-1.68c.14-.78.9-1.3,1.68-1.16s1.3.9,1.16,1.68Z"/><path class="cls-11" d="m279.06,136.6c-.09.47-.54.79-1.01.7s-.79-.54-.7-1.02c.09-.47.59-1.05,1.06-.96s.74.81.65,1.28h0Z"/><path class="cls-11" d="m300.14,121.86c-.07.39-.44.64-.83.57s-.64-.44-.57-.83.44-.64.83-.57c.39.07.64.44.57.83Z"/><path class="cls-11" d="m304.97,133.81c-.1.57-.65.94-1.22.84s-.94-.65-.84-1.22.65-.94,1.21-.84c.57.1.94.65.84,1.22h.01Z"/><path class="cls-11" d="m277.92,134.17c-.41.68-1.55.66-2.23.25-.68-.41-.9-1.3-.49-1.98s1.3-.9,1.98-.49c.68.41,1.15,1.54.74,2.22Z"/><path class="cls-11" d="m289.89,134.19c-.29.48-.91.63-1.39.35-.48-.29-.74-.99-.45-1.47.29-.48,1.01-.55,1.49-.26.48.29.63.91.35,1.39h0Z"/><path class="cls-11" d="m283.04,142.17c-.29.48-.91.63-1.39.35-.48-.29-.74-.99-.45-1.47.29-.48,1.01-.55,1.49-.26.48.29.63.91.35,1.39h0Z"/><path class="cls-11" d="m300.98,147.84c-.41.68-1.3.9-1.98.49-.68-.41-.9-1.3-.49-1.98s1.3-.9,1.98-.49c.68.41.9,1.3.49,1.98Z"/><path class="cls-11" d="m290.36,148.44c-.25.41-.77.54-1.18.29s-.54-.77-.29-1.18c.25-.41.77-.54,1.18-.29s.54.77.29,1.18Z"/><path class="cls-11" d="m283.12,123.87c-.41.68-1.3.9-1.98.49-.68-.41-.9-1.3-.49-1.98s1.3-.9,1.98-.49c.68.41.9,1.3.49,1.98Z"/><path class="cls-5" d="m313.91,132.44c-.59-1.67-3.73-2.17-6.65-2.27.2.74.35,1.5.45,2.27,1.91.11,3.48.37,4.01.71-.11.15-.34.41-.85.78-.9.67-1.92,1.31-3.04,1.91-9.56,5.19-26.02,7.96-33.88,7.18-.47-.05-.91-.1-1.31-.17-3.61-.64-3.92-1.43-3.92-1.43-.02-.44,1.39-1.62,3.67-2.72-.16-.75-.28-1.52-.35-2.3-2.35,1.04-5.76,2.96-5.54,5.24.21,2.18,3.38,2.99,5.75,3.41.89.16,1.95.25,3.13.3,1.4.05,2.98.02,4.68-.09,8.32-.54,19.6-2.94,27.42-6.73,1.77-.86,3.37-1.79,4.72-2.79.56-.42,2.28-1.69,1.71-3.28v-.02Z"/></g><g id="a4"><path class="cls-5" d="m331.44,118.44c.68.84,11.63,12.21,11.63,12.21l4.08-3.38-16.42-17.24c-.75,1.98.05,7.62.7,8.42h.01Z"/><path class="cls-5" d="m339.06,110.86s-6.36-2.45-7.94-1.39l16.54,17.37,2.9-2.4-11.5-13.58Z"/><path class="cls-12" d="m351.14,131.45c.12.13.33.14.46,0,.02-.02.04-.04.05-.06.08-.12.07-.29-.04-.4l-3.96-4.16-.5.42,3.99,4.19h0Z"/><path class="cls-5" d="m330.86,109.73c-.05.08-.09.18-.13.29l16.42,17.24.5-.42-16.54-17.37c-.1.07-.19.16-.25.26Z"/><path class="cls-11" d="m355.84,130.85c-.25-.32-.5-.62-.75-.92-.07-.08-.14-.17-.21-.25-.22-.26-.48-.56-.78-.89-1.65,2.83-3.3,5.67-4.99,8.49,1.46,1.4,3.23,2.91,4.48,3.34,2.85.99,6.05-1.76,5.49-4.46-.26-1.26-1.65-3.28-3.05-5.06-.07-.09-.13-.17-.2-.26h0Z"/><path class="cls-11" d="m351.15,125.63l-7.71,6.11s3.6,3.45,4.35,4.23c.07.08.15.15.23.23.26.26.54.54.84.84.08.08.16.15.23.23,0,0,.02.02.03.03,1.69-2.83,3.34-5.67,4.99-8.49-1.25-1.39-2.96-3.16-2.96-3.16v-.02Z"/><rect class="cls-11" x="337.46" y="124.74" width="18.96" height="6.09" rx="2.4" ry="2.4" transform="translate(3.56 264.85) rotate(-41.98)"/></g><g id="a3"><path class="cls-9" d="m203.43,121.3c6.85,1.61,11.09,8.46,9.49,15.31-1.61,6.85-8.46,11.09-15.31,9.49-6.85-1.61-11.09-8.46-9.49-15.31,1.61-6.85,8.46-11.09,15.31-9.49Z"/><g class="cls-13"><path class="cls-5" d="m191.88,123.46c-.56.15-.86.81-.79,1.39s.42,1.08.8,1.52.79.87,1.03,1.4c.49,1.07.19,2.36.8,3.42.18.32.47.59.81.73.86.34,1.51-.27,1.8-.95.21-.48.28-1.02.43-1.53.3-1.06.93-2.01,1.77-2.71.53-.44,1.33.03,1.23.71-.05.33-.07.66-.05.99.07.9.59,1.83,1.45,2.11.6.19,1.24.04,1.85-.1,1.34-.32,2.69-.65,4.03-.97.81-.19,1.71-.46,1.96-1.34.15-.56-.05-1.15-.44-1.57-.7-.76-1.74-.93-2.73-1.01-.9-.08-1.84-.11-2.62-.64-.3-.21-.56-.49-.7-.83-.42-1.02.36-1.69.7-2.5.58-1.36-.18-3.01-1.38-3.88-1.2-.87-2.72-1.15-4.19-1.33"/><path class="cls-5" d="m191.44,146.17c1.18.56,2.4,1.12,3.7,1.24,1.3.12,2.74-.3,3.49-1.37.56-.79.67-1.81,1-2.71.34-.91,1.1-1.82,2.06-1.75.71.06,1.26.62,1.85,1.01,2.01,1.31,4.66.61,6.94-.12.76-.25,1.54-.5,2.19-.98.65-.48,1.15-1.23,1.11-2.03-.03-.76-.53-1.43-1.15-1.87-.62-.43-1.36-.67-2.08-.89-1.5-.47-3-.94-4.49-1.4-1.32-.41-2.95-.76-3.93.23-.76.77-.76,2.04-1.45,2.86-.52.61-1.4.88-2.17.67-.77-.22-1.38-.91-1.51-1.7-.08-.48.02-.98-.07-1.46-.09-.48-.46-.98-.94-.94-.87.06-.93,1.57-1.78,1.79-.4.1-.82-.15-1.08-.48s-.4-.73-.62-1.08c-.87-1.4-2.78-1.85-4.39-1.49s-2.99,1.37-4.31,2.36"/></g></g><path class="cls-6" d="m1.6,58.03c-7.72,3.07-13.28,10.91-13.63,19.2S-7.5,93.81-.07,97.52c7.93,3.97,17.91,2.93,25.22,7.96,5.25,3.61,8.11,9.67,11.4,15.12,10.79,17.91,41,45.33,60.55,41.87,2.72-.48,13.58-.54,16.15-1.55,6.67-2.62,5.38-30.06-4.64-35.15-3.25-1.65-4.04-6.86-2.47-10.15,2.15-4.5,10.06-5.39,9.96-10.37-10.51-4.11-15.72-15.6-23.32-23.94-15.78-17.34-41.43-20.58-64.79-22.73"/><path class="cls-9" d="m407.03,75.92c-6.12-.79-11.42-4.56-17.3-6.44-5.59-1.79-11.59-1.83-17.32-3.1-8.26-1.83-16.11-6.46-20.65-13.6-4.54-7.13-5.29-16.86-.84-24.06,3.18-5.13,8.51-8.52,13.87-11.29,7.4-3.83,15.22-6.83,23.28-8.94,4.15-1.09,8.47-1.94,12.72-1.33,10.92,1.56,18.19,12.09,22.22,22.35,2.54,6.48,13.44,25.65,11.88,31.23-2.42,8.68-19.88,16.2-27.87,15.17h0Z"/><path class="cls-5" d="m395.1,99.86c.58-.66,1.16-1.23,1.83-1.78.39-.32.9-.13,1.05.33.32.94.64,1.88.95,2.82.13.4-.47.58-.66.25-.35-.61-.69-1.23-1.04-1.84-.39.42-.79.82-1.24,1.21-.66.57-1.46-.35-.9-.98h.01Zm-4.3-.63c.45-.39.85-.79,1.24-1.21.35.61.69,1.23,1.04,1.84.19.33.79.15.66-.25-.32-.94-.64-1.88-.95-2.82-.16-.46-.66-.65-1.05-.33-.68.56-1.25,1.13-1.83,1.78-.56.63.24,1.55.9.98h-.01Zm-5.2-1.61c.45-.39.85-.79,1.24-1.21.35.61.69,1.23,1.04,1.84.19.33.79.15.66-.25-.32-.94-.64-1.88-.95-2.82-.16-.46-.66-.65-1.05-.33-.68.56-1.25,1.12-1.83,1.78-.56.63.24,1.55.9.98h-.01Zm-5.2-1.61c.45-.39.85-.79,1.24-1.21.35.61.69,1.23,1.04,1.84.19.33.79.15.66-.25-.32-.94-.64-1.88-.95-2.82-.16-.46-.66-.65-1.05-.33-.68.56-1.25,1.12-1.83,1.78-.56.63.24,1.55.9.98h-.01Zm-5.2-1.61c.45-.39.85-.79,1.24-1.21.35.61.69,1.23,1.04,1.84.19.33.79.15.66-.25-.32-.94-.64-1.88-.95-2.82-.16-.46-.66-.65-1.05-.33-.68.56-1.25,1.12-1.83,1.78-.56.63.24,1.55.9.98h-.01Zm-5.2-1.61c.45-.39.85-.79,1.24-1.21.35.61.69,1.23,1.04,1.84.19.33.79.15.66-.25-.32-.94-.64-1.88-.95-2.82-.16-.46-.66-.65-1.05-.33-.68.56-1.25,1.12-1.83,1.78-.56.63.24,1.55.9.98h-.01Zm-5.2-1.61c.45-.39.85-.79,1.24-1.21.35.61.69,1.23,1.04,1.84.19.33.79.15.66-.25-.32-.94-.64-1.88-.95-2.82-.16-.46-.66-.65-1.05-.33-.68.56-1.25,1.12-1.83,1.78-.56.63.24,1.55.9.98h-.01Zm-5.2-1.61c.45-.39.85-.79,1.24-1.21.35.61.69,1.23,1.04,1.84.19.33.79.15.66-.25-.32-.94-.64-1.88-.95-2.82-.16-.46-.66-.65-1.05-.33-.68.56-1.25,1.12-1.83,1.78-.56.63.24,1.55.9.98h-.01Zm-5.2-1.61c.45-.39.85-.79,1.24-1.21.35.61.69,1.23,1.04,1.84.19.33.79.15.66-.25-.32-.94-.64-1.88-.95-2.82-.16-.46-.66-.65-1.05-.33-.68.56-1.25,1.12-1.83,1.78-.56.63.24,1.55.9.98h-.01Zm42.03,7.57c.58-.66,1.16-1.23,1.83-1.78.39-.32.9-.13,1.05.33.32.94.64,1.88.95,2.82.13.4-.47.58-.66.25-.35-.61-.69-1.23-1.04-1.84-.39.42-.79.82-1.24,1.21-.66.57-1.46-.35-.9-.98h.01Zm-4.3-.63c.45-.39.85-.79,1.24-1.21.35.61.69,1.23,1.04,1.84.19.33.79.15.66-.25-.32-.94-.64-1.88-.95-2.82-.16-.46-.66-.65-1.05-.33-.68.56-1.25,1.12-1.83,1.78-.56.63.24,1.55.9.98h-.01Zm-5.2-1.61c.45-.39.85-.79,1.24-1.21.35.61.69,1.23,1.04,1.84.19.33.79.15.66-.25-.32-.94-.64-1.88-.95-2.82-.16-.46-.66-.65-1.05-.33-.68.56-1.25,1.13-1.83,1.78-.56.63.24,1.55.9.98h-.01Zm-5.2-1.61c.45-.39.85-.79,1.24-1.21.35.61.69,1.23,1.04,1.84.19.33.79.15.66-.25-.32-.94-.64-1.88-.95-2.82-.16-.46-.66-.65-1.05-.33-.68.56-1.25,1.12-1.83,1.78-.56.63.24,1.55.9.98h-.01Zm-5.2-1.61c.45-.39.85-.79,1.24-1.21.35.61.69,1.23,1.04,1.84.19.33.79.15.66-.25-.32-.94-.64-1.88-.95-2.82-.16-.46-.66-.65-1.05-.33-.68.56-1.25,1.12-1.83,1.78-.56.63.24,1.55.9.98h-.01Zm-5.2-1.61c.45-.39.85-.79,1.24-1.21.35.61.69,1.23,1.04,1.84.19.33.79.15.66-.25-.32-.94-.64-1.88-.95-2.82-.16-.46-.66-.65-1.06-.33-.68.56-1.25,1.12-1.83,1.78-.56.63.24,1.55.9.98h0Zm-5.2-1.61c.45-.39.85-.79,1.24-1.21.35.61.69,1.23,1.04,1.84.19.33.79.15.66-.25-.32-.94-.64-1.88-.95-2.82-.16-.46-.66-.65-1.05-.33-.68.56-1.25,1.13-1.83,1.78-.56.63.24,1.55.9.98h-.01Zm-5.2-1.61c.45-.39.85-.79,1.24-1.21.35.61.69,1.23,1.04,1.84.19.33.79.15.66-.25-.32-.94-.64-1.88-.95-2.82-.16-.46-.66-.65-1.05-.33-.68.56-1.25,1.12-1.83,1.78-.56.63.24,1.55.9.98h-.01Zm-5.2-1.61c.45-.39.85-.79,1.24-1.21.35.61.69,1.23,1.04,1.84.19.33.79.15.66-.25-.32-.94-.64-1.88-.95-2.82-.16-.46-.66-.65-1.05-.33-.68.56-1.25,1.13-1.83,1.78-.56.63.24,1.55.9.98h-.01Zm42.03,7.57c.58-.66,1.16-1.23,1.83-1.78.39-.32.9-.13,1.05.33.32.94.64,1.88.95,2.82.13.4-.47.58-.66.25-.35-.61-.69-1.23-1.04-1.84-.39.42-.79.82-1.24,1.21-.66.57-1.46-.35-.9-.98h.01Zm-4.3-.63c.45-.39.85-.79,1.24-1.21.35.61.69,1.23,1.04,1.84.19.33.79.15.66-.25-.32-.94-.64-1.88-.95-2.82-.16-.46-.66-.65-1.05-.33-.68.56-1.25,1.12-1.83,1.78-.56.63.24,1.55.9.98h-.01Zm-5.2-1.61c.45-.39.85-.79,1.24-1.21.35.61.69,1.23,1.04,1.84.19.33.79.15.66-.25-.32-.94-.64-1.88-.95-2.82-.16-.46-.66-.65-1.06-.33-.68.56-1.25,1.12-1.83,1.78-.56.63.24,1.55.9.98h0Zm-5.2-1.61c.45-.39.85-.79,1.24-1.21.35.61.69,1.23,1.04,1.84.19.33.79.15.66-.25-.32-.94-.64-1.88-.95-2.82-.16-.46-.66-.65-1.05-.33-.68.56-1.25,1.12-1.83,1.78-.56.63.24,1.55.9.98h-.01Zm-5.2-1.61c.45-.39.85-.79,1.24-1.21.35.61.69,1.23,1.04,1.84.19.33.79.15.66-.25-.32-.94-.64-1.88-.95-2.82-.16-.46-.66-.65-1.05-.33-.68.56-1.25,1.12-1.83,1.78-.56.63.24,1.55.9.98h-.01Zm-5.2-1.61c.45-.39.85-.79,1.24-1.21.35.61.69,1.23,1.04,1.84.19.33.79.15.66-.25-.32-.94-.64-1.88-.95-2.82-.16-.46-.66-.65-1.05-.33-.68.56-1.25,1.12-1.83,1.78-.56.63.24,1.55.9.98h-.01Zm-5.2-1.61c.45-.39.85-.79,1.24-1.21.35.61.69,1.23,1.04,1.84.19.33.79.15.66-.25-.32-.94-.64-1.88-.95-2.82-.16-.46-.66-.65-1.05-.33-.68.56-1.25,1.12-1.83,1.78-.56.63.24,1.55.9.98h-.01Zm-5.2-1.61c.45-.39.85-.79,1.24-1.21.35.61.69,1.23,1.04,1.84.19.33.79.15.66-.25-.32-.94-.64-1.88-.95-2.82-.16-.46-.66-.65-1.05-.33-.68.56-1.25,1.12-1.83,1.78-.56.63.24,1.55.9.98h-.01Zm-5.2-1.61c.45-.39.85-.79,1.24-1.21.35.61.69,1.23,1.04,1.84.19.33.79.15.66-.25-.32-.94-.64-1.88-.95-2.82-.16-.46-.66-.65-1.05-.33-.68.56-1.25,1.12-1.83,1.78-.56.63.24,1.55.9.98h-.01Zm42.03,7.57c.58-.66,1.16-1.23,1.83-1.78.39-.32.9-.13,1.05.33.32.94.64,1.88.95,2.82.13.4-.47.58-.66.25-.35-.61-.69-1.23-1.04-1.84-.39.42-.79.82-1.24,1.21-.66.57-1.46-.35-.9-.98h.01Zm-4.3-.63c.45-.39.85-.79,1.24-1.21.35.61.69,1.23,1.04,1.84.19.33.79.15.66-.25-.32-.94-.64-1.88-.95-2.82-.16-.46-.66-.65-1.05-.33-.68.56-1.25,1.13-1.83,1.78-.56.63.24,1.55.9.98h-.01Zm-5.2-1.61c.45-.39.85-.79,1.24-1.21.35.61.69,1.23,1.04,1.84.19.33.79.15.66-.25-.32-.94-.64-1.88-.95-2.82-.16-.46-.66-.65-1.05-.33-.68.56-1.25,1.12-1.83,1.78-.56.63.24,1.55.9.98h-.01Zm-5.2-1.61c.45-.39.85-.79,1.24-1.21.35.61.69,1.23,1.04,1.84.19.33.79.15.66-.25-.32-.94-.64-1.88-.95-2.82-.16-.46-.66-.65-1.05-.33-.68.56-1.25,1.12-1.83,1.78-.56.63.24,1.55.9.98h-.01Zm-5.2-1.61c.45-.39.85-.79,1.24-1.21.35.61.69,1.23,1.04,1.84.19.33.79.15.66-.25-.32-.94-.64-1.88-.95-2.82-.16-.46-.66-.65-1.05-.33-.68.56-1.25,1.12-1.83,1.78-.56.63.24,1.55.9.98h-.01Zm-5.2-1.61c.45-.39.85-.79,1.24-1.21.35.61.69,1.23,1.04,1.84.19.33.79.15.66-.25-.32-.94-.64-1.88-.95-2.82-.16-.46-.66-.65-1.05-.33-.68.56-1.25,1.12-1.83,1.78-.56.63.24,1.55.9.98h-.01Zm-5.2-1.61c.45-.39.85-.79,1.24-1.21.35.61.69,1.23,1.04,1.84.19.33.79.15.66-.25l-.95-2.82c-.16-.46-.66-.65-1.05-.33-.68.56-1.25,1.12-1.83,1.78-.56.63.24,1.55.9.98h-.01Zm-5.2-1.61c.45-.39.85-.79,1.24-1.21.35.61.69,1.23,1.04,1.84.19.33.79.15.66-.25-.32-.94-.64-1.88-.95-2.82-.16-.46-.66-.65-1.05-.33-.68.56-1.25,1.12-1.83,1.78-.56.63.24,1.55.9.98h-.01Zm-5.2-1.61c.45-.39.85-.79,1.24-1.21.35.61.69,1.23,1.04,1.84.19.33.79.15.66-.25-.32-.94-.64-1.88-.95-2.82-.16-.46-.66-.65-1.05-.33-.68.56-1.25,1.12-1.83,1.78-.56.63.24,1.55.9.98h-.01Zm42.03,7.57c.58-.66,1.16-1.23,1.83-1.78.39-.32.9-.13,1.05.33.32.94.64,1.88.95,2.82.13.4-.47.58-.66.25-.35-.61-.69-1.23-1.04-1.84-.39.42-.79.82-1.24,1.21-.66.57-1.46-.35-.9-.98h.01Zm-4.3-.63c.45-.39.85-.79,1.24-1.21.35.61.69,1.23,1.04,1.84.19.33.79.15.66-.25-.32-.94-.64-1.88-.95-2.82-.16-.46-.66-.65-1.05-.33-.68.56-1.25,1.12-1.83,1.78-.56.63.24,1.55.9.98h-.01Zm-5.2-1.61c.45-.39.85-.79,1.24-1.21.35.61.69,1.23,1.04,1.84.19.33.79.15.66-.25-.32-.94-.64-1.88-.95-2.82-.16-.46-.66-.65-1.05-.33-.68.56-1.25,1.12-1.83,1.78-.56.63.24,1.55.9.98h-.01Zm-5.2-1.61c.45-.39.85-.79,1.24-1.21.35.61.69,1.23,1.04,1.84.19.33.79.15.66-.25-.32-.94-.64-1.88-.95-2.82-.16-.46-.66-.65-1.05-.33-.68.56-1.25,1.12-1.83,1.78-.56.63.24,1.55.9.98h-.01Zm-5.2-1.61c.45-.39.85-.79,1.24-1.21.35.61.69,1.23,1.04,1.84.19.33.79.15.66-.25-.32-.94-.64-1.88-.95-2.82-.16-.46-.66-.65-1.05-.33-.68.56-1.25,1.12-1.83,1.78-.56.63.24,1.55.9.98h-.01Zm-5.2-1.61c.45-.39.85-.79,1.24-1.21.35.61.69,1.23,1.04,1.84.19.33.79.15.66-.25-.32-.94-.64-1.88-.95-2.82-.16-.46-.66-.65-1.05-.33-.68.56-1.25,1.13-1.83,1.78-.56.63.24,1.55.9.98h-.01Zm-5.2-1.61c.45-.39.85-.79,1.24-1.21.35.61.69,1.23,1.04,1.84.19.33.79.15.66-.25-.32-.94-.64-1.88-.95-2.82-.16-.46-.66-.65-1.05-.33-.68.56-1.25,1.12-1.83,1.78-.56.63.24,1.55.9.98h-.01Zm-5.2-1.61c.45-.39.85-.79,1.24-1.21.35.61.69,1.23,1.04,1.84.19.33.79.15.66-.25-.32-.94-.64-1.88-.95-2.82-.16-.46-.66-.65-1.05-.33-.68.56-1.25,1.12-1.83,1.78-.56.63.24,1.55.9.98h-.01Zm-5.2-1.61c.45-.39.85-.79,1.24-1.21.35.61.69,1.23,1.04,1.84.19.33.79.15.66-.25-.32-.94-.64-1.88-.95-2.82-.16-.46-.66-.65-1.05-.33-.68.56-1.25,1.12-1.83,1.78-.56.63.24,1.55.9.98h-.01Zm42.03,7.57c.58-.66,1.16-1.23,1.83-1.78.39-.32.9-.13,1.05.33.32.94.64,1.88.95,2.82.13.4-.47.58-.66.25-.35-.61-.69-1.23-1.04-1.84-.39.42-.79.82-1.24,1.21-.66.57-1.46-.35-.9-.98h.01Zm-4.3-.63c.45-.39.85-.79,1.24-1.21.35.61.69,1.23,1.04,1.84.19.33.79.15.66-.25-.32-.94-.64-1.88-.95-2.82-.16-.46-.66-.65-1.06-.33-.68.56-1.25,1.12-1.83,1.78-.56.63.24,1.55.9.98h0Zm-5.2-1.61c.45-.39.85-.79,1.24-1.21.35.61.69,1.23,1.04,1.84.19.33.79.15.66-.25-.32-.94-.64-1.88-.95-2.82-.16-.46-.66-.65-1.05-.33-.68.56-1.25,1.13-1.83,1.78-.56.63.24,1.55.9.98h-.01Zm-5.2-1.61c.45-.39.85-.79,1.24-1.21.35.61.69,1.23,1.04,1.84.19.33.79.15.66-.25-.32-.94-.64-1.88-.95-2.82-.16-.46-.66-.65-1.05-.33-.68.56-1.25,1.12-1.83,1.78-.56.63.24,1.55.9.98h-.01Zm-5.2-1.61c.45-.39.85-.79,1.24-1.21.35.61.69,1.23,1.04,1.84.19.33.79.15.66-.25-.32-.94-.64-1.88-.95-2.82-.16-.46-.66-.65-1.05-.33-.68.56-1.25,1.12-1.83,1.78-.56.63.24,1.55.9.98h-.01Zm-5.2-1.61c.45-.39.85-.79,1.24-1.21.35.61.69,1.23,1.04,1.84.19.33.79.15.66-.25-.32-.94-.64-1.88-.95-2.82-.16-.46-.66-.65-1.05-.33-.68.56-1.25,1.12-1.83,1.78-.56.63.24,1.55.9.98h-.01Zm-5.2-1.61c.45-.39.85-.79,1.24-1.21.35.61.69,1.23,1.04,1.84.19.33.79.15.66-.25-.32-.94-.64-1.88-.95-2.82-.16-.46-.66-.65-1.05-.33-.68.56-1.25,1.12-1.83,1.78-.56.63.24,1.55.9.98h-.01Zm-5.2-1.61c.45-.39.85-.79,1.24-1.21.35.61.69,1.23,1.04,1.84.19.33.79.15.66-.25-.32-.94-.64-1.88-.95-2.82-.16-.46-.66-.65-1.05-.33-.68.56-1.25,1.12-1.83,1.78-.56.63.24,1.55.9.98h-.01Zm-5.2-1.61c.45-.39.85-.79,1.24-1.21.35.61.69,1.23,1.04,1.84.19.33.79.15.66-.25-.32-.94-.64-1.88-.95-2.82-.16-.46-.66-.65-1.05-.33-.68.56-1.25,1.13-1.83,1.78-.56.63.24,1.55.9.98h-.01Zm42.03,7.57c.58-.66,1.16-1.23,1.83-1.78.39-.32.9-.13,1.05.33l.95,2.82c.13.4-.47.58-.66.25-.35-.61-.69-1.23-1.04-1.84-.39.42-.79.82-1.24,1.21-.66.57-1.46-.35-.9-.98h.01Zm-4.3-.63c.45-.39.85-.79,1.24-1.21.35.61.69,1.23,1.04,1.84.19.33.79.15.66-.25-.32-.94-.64-1.88-.95-2.82-.16-.46-.66-.65-1.05-.33-.68.56-1.25,1.12-1.83,1.78-.56.63.24,1.55.9.98h-.01Zm-5.2-1.61c.45-.39.85-.79,1.24-1.21.35.61.69,1.23,1.04,1.84.19.33.79.15.66-.25-.32-.94-.64-1.88-.95-2.82-.16-.46-.66-.65-1.05-.33-.68.56-1.25,1.12-1.83,1.78-.56.63.24,1.55.9.98h-.01Zm-5.2-1.61c.45-.39.85-.79,1.24-1.21.35.61.69,1.23,1.04,1.84.19.33.79.15.66-.25-.32-.94-.64-1.88-.95-2.82-.16-.46-.66-.65-1.05-.33-.68.56-1.25,1.13-1.83,1.78-.56.63.24,1.55.9.98h-.01Zm-5.2-1.61c.45-.39.85-.79,1.24-1.21.35.61.69,1.23,1.04,1.84.19.33.79.15.66-.25-.32-.94-.64-1.88-.95-2.82-.16-.46-.66-.65-1.05-.33-.68.56-1.25,1.12-1.83,1.78-.56.63.24,1.55.9.98h-.01Zm-5.2-1.61c.45-.39.85-.79,1.24-1.21.35.61.69,1.23,1.04,1.84.19.33.79.15.66-.25-.32-.94-.64-1.88-.95-2.82-.16-.46-.66-.65-1.05-.33-.68.56-1.25,1.12-1.83,1.78-.56.63.24,1.55.9.98h-.01Zm-5.2-1.61c.45-.39.85-.79,1.24-1.21l1.04,1.84c.19.33.79.15.66-.25-.32-.94-.64-1.88-.95-2.82-.16-.46-.66-.65-1.05-.33-.68.56-1.25,1.12-1.83,1.78-.56.63.24,1.55.9.98h-.01Zm-5.2-1.61c.45-.39.85-.79,1.24-1.21.35.61.69,1.23,1.04,1.84.19.33.79.15.66-.25-.32-.94-.64-1.88-.95-2.82-.16-.46-.66-.65-1.05-.33-.68.56-1.25,1.12-1.83,1.78-.56.63.24,1.55.9.98h-.01Zm-5.2-1.61c.45-.39.85-.79,1.24-1.21.35.61.69,1.23,1.04,1.84.19.33.79.15.66-.25-.32-.94-.64-1.88-.95-2.82-.16-.46-.66-.65-1.05-.33-.68.56-1.25,1.12-1.83,1.78-.56.63.24,1.55.9.98h-.01Zm42.03,7.57c.58-.66,1.16-1.23,1.83-1.78.39-.32.9-.13,1.05.33.32.94.64,1.88.95,2.82.13.4-.47.58-.66.25-.35-.61-.69-1.23-1.04-1.84-.39.42-.79.82-1.24,1.21-.66.57-1.46-.35-.9-.98h.01Zm-4.3-.63c.45-.39.85-.79,1.24-1.21.35.61.69,1.23,1.04,1.84.19.33.79.15.66-.25-.32-.94-.64-1.88-.95-2.82-.16-.46-.66-.65-1.05-.33-.68.56-1.25,1.12-1.83,1.78-.56.63.24,1.55.9.98h-.01Zm-5.2-1.61c.45-.39.85-.79,1.24-1.21.35.61.69,1.23,1.04,1.84.19.33.79.15.66-.25-.32-.94-.64-1.88-.95-2.82-.16-.46-.66-.65-1.05-.33-.68.56-1.25,1.13-1.83,1.78-.56.63.24,1.55.9.98h-.01Zm-5.2-1.61c.45-.39.85-.79,1.24-1.21.35.61.69,1.23,1.04,1.84.19.33.79.15.66-.25-.32-.94-.64-1.88-.95-2.82-.16-.46-.66-.65-1.05-.33-.68.56-1.25,1.12-1.83,1.78-.56.63.24,1.55.9.98h-.01Zm-5.2-1.61c.45-.39.85-.79,1.24-1.21.35.61.69,1.23,1.04,1.84.19.33.79.15.66-.25-.32-.94-.64-1.88-.95-2.82-.16-.46-.66-.65-1.05-.33-.68.56-1.25,1.12-1.83,1.78-.56.63.24,1.55.9.98h-.01Zm-5.2-1.61c.45-.39.85-.79,1.24-1.21.35.61.69,1.23,1.04,1.84.19.33.79.15.66-.25-.32-.94-.64-1.88-.95-2.82-.16-.46-.66-.65-1.05-.33-.68.56-1.25,1.12-1.83,1.78-.56.63.24,1.55.9.98h-.01Zm-5.2-1.61c.45-.39.85-.79,1.24-1.21.35.61.69,1.23,1.04,1.84.19.33.79.15.66-.25-.32-.94-.64-1.88-.95-2.82-.16-.46-.66-.65-1.05-.33-.68.56-1.25,1.12-1.83,1.78-.56.63.24,1.55.9.98h-.01Zm-5.2-1.61c.45-.39.85-.79,1.24-1.21.35.61.69,1.23,1.04,1.84.19.33.79.15.66-.25-.32-.94-.64-1.88-.95-2.82-.16-.46-.66-.65-1.05-.33-.68.56-1.25,1.12-1.83,1.78-.56.63.24,1.55.9.98h-.01Zm-5.2-1.61c.45-.39.85-.79,1.24-1.21.35.61.69,1.23,1.04,1.84.19.33.79.15.66-.25-.32-.94-.64-1.88-.95-2.82-.16-.46-.66-.65-1.05-.33-.68.56-1.25,1.12-1.83,1.78-.56.63.24,1.55.9.98h-.01Zm42.03,7.57c.58-.66,1.16-1.23,1.83-1.78.39-.32.9-.13,1.05.33.32.94.64,1.88.95,2.82.13.4-.47.58-.66.25-.35-.61-.69-1.23-1.04-1.84-.39.42-.79.82-1.24,1.21-.66.57-1.46-.35-.9-.98h.01Zm-4.3-.63c.45-.39.85-.79,1.24-1.21.35.61.69,1.23,1.04,1.84.19.33.79.15.66-.25-.32-.94-.64-1.88-.95-2.82-.16-.46-.66-.65-1.05-.33-.68.56-1.25,1.12-1.83,1.78-.56.63.24,1.55.9.98h-.01Zm-5.2-1.61c.45-.39.85-.79,1.24-1.21.35.61.69,1.23,1.04,1.84.19.33.79.15.66-.25-.32-.94-.64-1.88-.95-2.82-.16-.46-.66-.65-1.05-.33-.68.56-1.25,1.12-1.83,1.78-.56.63.24,1.55.9.98h-.01Zm-5.2-1.61c.45-.39.85-.79,1.24-1.21.35.61.69,1.23,1.04,1.84.19.33.79.15.66-.25-.32-.94-.64-1.88-.95-2.82-.16-.46-.66-.65-1.05-.33-.68.56-1.25,1.13-1.83,1.78-.56.63.24,1.55.9.98h-.01Zm-5.2-1.61c.45-.39.85-.79,1.24-1.21.35.61.69,1.23,1.04,1.84.19.33.79.15.66-.25-.32-.94-.64-1.88-.95-2.82-.16-.46-.66-.65-1.05-.33-.68.56-1.25,1.12-1.83,1.78-.56.63.24,1.55.9.98h-.01Zm-5.2-1.61c.45-.39.85-.79,1.24-1.21.35.61.69,1.23,1.04,1.84.19.33.79.15.66-.25-.32-.94-.64-1.88-.95-2.82-.16-.46-.66-.65-1.05-.33-.68.56-1.25,1.12-1.83,1.78-.56.63.24,1.55.9.98h-.01Zm-5.2-1.61c.45-.39.85-.79,1.24-1.21.35.61.69,1.23,1.04,1.84.19.33.79.15.66-.25-.32-.94-.64-1.88-.95-2.82-.16-.46-.66-.65-1.05-.33-.68.56-1.25,1.12-1.83,1.78-.56.63.24,1.55.9.98h-.01Zm-5.2-1.61c.45-.39.85-.79,1.24-1.21.35.61.69,1.23,1.04,1.84.19.33.79.15.66-.25-.32-.94-.64-1.88-.95-2.82-.16-.46-.66-.65-1.05-.33-.68.56-1.25,1.13-1.83,1.78-.56.63.24,1.55.9.98h-.01Zm-5.2-1.61c.45-.39.85-.79,1.24-1.21.35.61.69,1.23,1.04,1.84.19.33.79.15.66-.25-.32-.94-.64-1.88-.95-2.82-.16-.46-.66-.65-1.05-.33-.68.56-1.25,1.12-1.83,1.78-.56.63.24,1.55.9.98h-.01Zm42.03,7.57c.58-.66,1.16-1.23,1.83-1.78.39-.32.9-.13,1.05.33l.95,2.82c.13.4-.47.58-.66.25-.35-.61-.69-1.23-1.04-1.84-.39.42-.79.82-1.24,1.21-.66.57-1.46-.35-.9-.98h.01Zm-4.3-.63c.45-.39.85-.79,1.24-1.21.35.61.69,1.23,1.04,1.84.19.33.79.15.66-.25l-.95-2.82c-.16-.46-.66-.65-1.05-.33-.68.56-1.25,1.12-1.83,1.78-.56.63.24,1.55.9.98h-.01Zm-5.2-1.61c.45-.39.85-.79,1.24-1.21.35.61.69,1.23,1.04,1.84.19.33.79.15.66-.25-.32-.94-.64-1.88-.95-2.82-.16-.46-.66-.65-1.05-.33-.68.56-1.25,1.12-1.83,1.78-.56.63.24,1.55.9.98h-.01Zm-5.2-1.61c.45-.39.85-.79,1.24-1.21.35.61.69,1.23,1.04,1.84.19.33.79.15.66-.25-.32-.94-.64-1.88-.95-2.82-.16-.46-.66-.65-1.05-.33-.68.56-1.25,1.13-1.83,1.78-.56.63.24,1.55.9.98h-.01Zm-5.2-1.61c.45-.39.85-.79,1.24-1.21.35.61.69,1.23,1.04,1.84.19.33.79.15.66-.25-.32-.94-.64-1.88-.95-2.82-.16-.46-.66-.65-1.05-.33-.68.56-1.25,1.12-1.83,1.78-.56.63.24,1.55.9.98h-.01Zm-5.2-1.61c.45-.39.85-.79,1.24-1.21.35.61.69,1.23,1.04,1.84.19.33.79.15.66-.25-.32-.94-.64-1.88-.95-2.82-.16-.46-.66-.65-1.05-.33-.68.56-1.25,1.12-1.83,1.78-.56.63.24,1.55.9.98h-.01Zm-5.2-1.61c.45-.39.85-.79,1.24-1.21.35.61.69,1.23,1.04,1.84.19.33.79.15.66-.25-.32-.94-.64-1.88-.95-2.82-.16-.46-.66-.65-1.05-.33-.68.56-1.25,1.13-1.83,1.78-.56.63.24,1.55.9.98h-.01Zm-5.2-1.61c.45-.39.85-.79,1.24-1.21.35.61.69,1.23,1.04,1.84.19.33.79.15.66-.25-.32-.94-.64-1.88-.95-2.82-.16-.46-.66-.65-1.05-.33-.68.56-1.25,1.12-1.83,1.78-.56.63.24,1.55.9.98h-.01Zm-5.2-1.61c.45-.39.85-.79,1.24-1.21.35.61.69,1.23,1.04,1.84.19.33.79.15.66-.25-.32-.94-.64-1.88-.95-2.82-.16-.46-.66-.65-1.05-.33-.68.56-1.25,1.12-1.83,1.78-.56.63.24,1.55.9.98h-.01Z"/><path class="cls-8" d="m61.95,111.36c-.33,0-.66-.04-.99-.1-.05.3-.09.59-.14.89-.08.55-.97.35-.85-.2.06-.28.12-.57.18-.85-.31-.07-.62-.13-.94-.16-.49-.04-.54-.72-.03-.78.37-.04.78-.08,1.19-.1.1-.48.2-.96.31-1.44.09-.43.73-.27.66.16-.07.44-.13.87-.2,1.31.37.04.73.11,1.05.27.48.24.28.98-.24,1h0Zm-5.53-1.2c-.32-.16-.68-.23-1.05-.27.07-.44.13-.87.2-1.31.07-.43-.57-.59-.66-.16-.1.48-.2.96-.31,1.44-.41.02-.81.06-1.19.1-.51.06-.46.73.03.78.31.03.62.09.94.16-.06.28-.12.57-.18.85-.12.55.77.75.85.2.05-.3.09-.59.14-.89.33.06.66.11.99.1.52-.02.71-.76.24-1h0Zm11.4.55c-.32-.16-.68-.23-1.05-.27.07-.44.13-.87.2-1.31.07-.43-.57-.59-.66-.16-.1.48-.2.96-.31,1.44-.41.02-.81.06-1.19.1-.51.06-.46.73.03.78.31.03.62.09.94.16-.06.28-.12.57-.18.85-.12.55.77.75.85.2.05-.29.09-.59.14-.89.33.06.66.11.99.1.52-.02.71-.76.24-1h0Zm6.69.41c-.32-.16-.68-.23-1.05-.27.07-.44.13-.87.2-1.31.07-.43-.57-.59-.66-.16-.1.48-.2.96-.31,1.44-.41.02-.81.06-1.19.1-.51.06-.46.73.03.78.31.03.62.09.94.16-.06.28-.12.57-.18.85-.12.55.77.75.85.2.05-.3.09-.59.14-.89.33.06.66.11.99.1.52-.02.71-.76.24-1h0Zm-10.5,7.15c-.33,0-.66-.04-.99-.1-.05.29-.09.59-.14.89-.08.55-.97.35-.85-.2.06-.28.12-.57.18-.85-.31-.07-.62-.13-.94-.16-.49-.04-.54-.72-.03-.78.37-.04.78-.08,1.19-.1.1-.48.2-.96.31-1.44.09-.43.73-.27.66.16-.07.44-.13.87-.2,1.31.37.04.73.11,1.05.27.48.24.28.98-.24,1h0Zm-5.53-1.2c-.32-.16-.68-.23-1.05-.27.07-.44.13-.87.2-1.31.07-.43-.57-.59-.66-.16-.1.48-.2.96-.31,1.44-.41.02-.81.06-1.19.1-.51.06-.46.73.03.78.31.03.62.09.94.16-.06.28-.12.57-.18.85-.12.55.77.75.85.2.05-.29.09-.59.14-.89.33.06.66.11.99.1.52-.02.71-.76.24-1h0Zm11.4.55c-.32-.16-.68-.23-1.05-.27.07-.44.13-.87.2-1.31.07-.43-.57-.59-.66-.16-.1.48-.2.96-.31,1.44-.41.02-.81.06-1.19.1-.51.06-.46.73.03.78.31.03.62.09.94.16-.06.28-.12.57-.18.85-.12.55.77.75.85.2.05-.3.09-.59.14-.89.33.06.66.11.99.1.52-.02.71-.76.24-1h0Zm6.69.41c-.32-.16-.68-.23-1.05-.27.07-.44.13-.87.2-1.31.07-.43-.57-.59-.66-.16-.1.48-.2.96-.31,1.44-.41.02-.81.06-1.19.1-.51.06-.46.73.03.78.31.03.62.09.94.16-.06.28-.12.57-.18.85-.12.55.77.75.85.2.05-.3.09-.59.14-.89.33.06.66.11.99.1.52-.02.71-.76.24-1h0Zm-16.39,5.86c-.33,0-.66-.04-.99-.1-.05.29-.09.59-.14.89-.08.55-.97.35-.85-.2.06-.28.12-.57.18-.85-.31-.07-.62-.13-.94-.16-.49-.04-.54-.72-.03-.78.37-.04.78-.08,1.19-.1.1-.48.2-.96.31-1.44.09-.43.73-.27.66.16-.07.44-.13.87-.2,1.31.37.04.73.11,1.05.27.48.24.28.98-.24,1h0Zm-5.53-1.2c-.32-.16-.68-.23-1.05-.27.07-.44.13-.87.2-1.31.07-.43-.57-.59-.66-.16-.1.48-.2.96-.31,1.44-.41.02-.81.06-1.19.1-.51.06-.46.73.03.78.31.03.62.09.94.16l-.18.85c-.12.55.77.75.85.2.05-.3.09-.59.14-.89.33.06.66.11.99.1.52-.02.71-.76.24-1h0Zm11.4.55c-.32-.16-.68-.23-1.05-.27.07-.44.13-.87.2-1.31.07-.43-.57-.59-.66-.16-.1.48-.2.96-.31,1.44-.41.02-.81.06-1.19.1-.51.06-.46.73.03.78.31.03.62.09.94.16-.06.28-.12.57-.18.85-.12.55.77.75.85.2.05-.3.09-.59.14-.89.33.06.66.11.99.1.52-.02.71-.76.24-1h0Zm6.69.41c-.32-.16-.68-.23-1.05-.27.07-.44.13-.87.2-1.31.07-.43-.57-.59-.66-.16-.1.48-.2.96-.31,1.44-.41.02-.81.05-1.19.1-.51.06-.46.73.03.78.31.03.62.09.94.16-.06.28-.12.57-.18.85-.12.55.77.75.85.2.05-.3.09-.59.14-.89.33.06.66.11.99.1.52-.02.71-.76.24-1h0Z"/><path class="cls-5" d="m124.91,152.93c.8-1.54,28.41,10.7,32.11,12.86,1.12.66,2.57.95,3.82.29-7.57-6.2-26.22-12.29-26.27-13.08-.05-.78,8.47,2.33,12.04,4.53,5.22,2.77,10.31,4.15,14.74,7.27,1.57.92,1.73-.15,2.17-.47,1.89-1.69,3.47-6.81,2.18-7.35-1.29-.54-.93-.51-1.66-.63-1.1-.18,1.77-1.77,1.02-2.57s-24.03-10.57-23.19-11.63c.84-1.06,8.51,4.41,12.8,6.47,3.57,1.47,7.21,2.87,10.81,4.4.5-.95.81-1.86.24-2.77-.64-1.68-5.04-1.88-7.13-3.11-5.57-3.94-12.52-5.85-18.37-9.17-4.29-2.34-9.02-3.36-13.74-4.31-6.57-1.04-13.02-4.72-18.71-4.38-5.1.5-2.8,8.86-.97,10.44,1.82,1.58.74,1.56-.47,1.73s-4.43,2.63-4.34,4.89,34.08,10.95,46.33,16.17c-7.77-3.67-14.1-6.49-22.43-8.6-.47-.08-1.34-.26-.96-1l-.02.02Z"/><path class="cls-6" d="m338.69-6.66c1.12,1.32-20.73,22.18-24.13,24.77-1.03.79-1.86,2.01-1.73,3.42,8.62-4.64,21.37-19.55,22.11-19.3s-5.39,6.95-8.78,9.41c-4.55,3.77-7.77,7.95-12.34,10.85-1.45,1.1-.52,1.65-.39,2.18.84,2.39,4.97,5.8,5.96,4.82.99-.99.82-.66,1.21-1.29.59-.95.96,2.31,1.99,1.92s18.94-18.18,19.6-17-7.32,6.19-10.86,9.36c-2.72,2.74-5.4,5.57-8.19,8.31.69.83,1.41,1.46,2.47,1.27,1.8.05,3.66-3.94,5.6-5.4,5.77-3.65,10.18-9.35,15.48-13.49,3.8-3.07,6.54-7.05,9.22-11.06,3.47-5.67,9.33-10.23,11.18-15.62,1.48-4.91-7.13-5.97-9.28-4.88-2.16,1.08-1.73.09-1.42-1.1.3-1.18-.74-5.1-2.86-5.88-2.12-.78-23.12,27.33-32.61,36.66,6.36-5.78,11.38-10.57,16.5-17.46.25-.4.75-1.14,1.29-.5h-.02Z"/><path class="cls-10" d="m16.91,100.37c-1.04,3.82-.75,8.14-2.43,11.78-2.66,5.78-6.45-3.52-8.53-5.39-2.47-2.22-6.41-4.66-9.13-2.1-2.71,2.55-3,7.39-3.77,10.82-.57,2.56-1.36,8.97-4.75,9.51-3.53.56-6.44-5.99-10.25-3.76-3.06,1.79-4.47,8.26-4.61,11.47-.12,2.71.31,9.6,4.36,9.42.61-.03,1.67-.54,2.38-1.18.34-.25.65-.6.91-1.06,1.52-2.79-1.64-9.56,2.53-10.6,4.2-1.04,6.21,5.54,9.86,6.63,4.05,1.21,6.55-3.88,6.73-7.44.12-2.36-2.47-8.66-.36-10.8,2.8-2.85,7.34,3.63,9.13,4.9,2.79,1.99,7.33,4.26,9.79.68,2.49-3.62,1.56-8.36,2.77-12.37.45-1.49,1.01-3.15,2.71-3.53,1.99-.45,3,1.81,4.28,3.05,1.37,1.34,2.85,2.89,4.79,1.61,1.48-.97,1.93-2.67,1.5-4.24-1.55-5.66-15.12-17.58-17.89-7.4h-.02Z"/><g id="a2"><path class="cls-11" d="m229,28.58c-1.66,7.78-9.31,12.74-17.08,11.08-7.78-1.66-12.74-9.31-11.08-17.08,1.66-7.78,9.31-12.74,17.08-11.08,7.78,1.66,12.74,9.31,11.08,17.08Z"/><path class="cls-5" d="m217.45,22.21c-.28.57-1.15.68-1.73.39-.57-.28-.81-.98-.53-1.55s.97-.81,1.55-.53c.57.28.99,1.11.71,1.68h0Z"/><path class="cls-5" d="m220.23,30.78c-.28.57-.98.81-1.55.53s-.81-.98-.53-1.55.98-.81,1.55-.53.81.98.53,1.55Z"/><path class="cls-5" d="m210.11,36.77c-.28.57-.97.81-1.55.53-.57-.28-.81-.98-.53-1.55s.97-.81,1.55-.53c.57.28.81.98.53,1.55Z"/><path class="cls-5" d="m206.15,24.6c-.17.35-.59.49-.94.32s-.49-.59-.32-.94c.17-.35.69-.68,1.03-.51.35.17.39.78.22,1.13h.01Z"/><path class="cls-5" d="m225.63,17.81c-.14.28-.48.4-.76.26s-.4-.48-.26-.76.48-.4.76-.26.4.48.26.76Z"/><path class="cls-5" d="m226.76,28.08c-.2.41-.71.58-1.12.38-.41-.2-.58-.71-.38-1.12s.71-.58,1.12-.38c.41.2.58.71.38,1.12Z"/><path class="cls-5" d="m205.8,22.47c-.47.44-1.34.17-1.78-.29-.44-.47-.41-1.2.05-1.63.47-.44,1.2-.41,1.63.05.44.47.56,1.44.09,1.87h0Z"/><path class="cls-5" d="m215.03,25.09c-.33.31-.84.29-1.15-.04s-.35-.93-.03-1.24c.33-.31.9-.2,1.21.12.31.33.29.84-.04,1.15h0Z"/><path class="cls-5" d="m208,29.76c-.33.31-.84.29-1.15-.04s-.35-.93-.03-1.24.9-.2,1.21.12c.31.33.29.84-.04,1.15h0Z"/><path class="cls-5" d="m220.62,38.04c-.47.44-1.2.41-1.63-.05s-.41-1.2.05-1.63,1.2-.41,1.63.05c.44.47.41,1.2-.05,1.63Z"/><path class="cls-5" d="m212.29,36.19c-.28.26-.72.25-.98-.03s-.25-.72.03-.98.72-.25.98.03.25.72-.03.98Z"/><path class="cls-5" d="m212.05,15.65c-.47.44-1.2.41-1.63-.05-.44-.47-.41-1.2.05-1.63.47-.44,1.2-.41,1.63.05.44.47.41,1.2-.05,1.63Z"/></g><g id="a1"><path class="cls-11" d="m295.8,48.04s2.71,1.9,4.71.44c2-1.46,3.41-3.35,3.15-4.04-.26-.69-4.56-3.14-5.9-2.89-1.35.25-2.31,1.64-2.31,1.64,0,0,.26,3.09.35,4.86h0Z"/><path class="cls-11" d="m294.5,39.15s3.28,1.44,4.56-.1c1.27-1.54,2.29-3.97,2.29-4.9s-3.51-1.6-5.1-1.88c-1.6-.28-3.56,3.37-3.56,3.37,0,0,1.24,1.52,1.82,3.51h-.01Z"/><path class="cls-11" d="m290.27,32.95s3.72-1.84,3.97-2.65c.25-.81-.06-4.87-.5-5.82s-4.83.31-5.74.99-1.54,5.12-1.45,5.4c0,0,2.25.59,3.72,2.08Z"/><path class="cls-11" d="m282.22,30.08s2.59-2.91,2.98-4.16-1.55-4.23-2.92-4.77c-1.37-.54-3.92,2.4-4.43,3.33-.51.93,1.36,5.77,1.36,5.77,0,0,3.01-.17,3.01-.17Z"/><path class="cls-11" d="m274.54,30.64s1.04-2.94.87-3.58c-.18-.63-2.32-2.11-2.98-2.18s-1.92,2.06-1.99,2.99c-.07.93,2.01,2.9,2.01,2.9l2.09-.14h0Z"/><path class="cls-6" d="m285.31,52.24s-4.48,2.3-5.9,3.97c-1.42,1.67-3.7.07-4.68-.85-.98-.92-1.94-1.81-1.35-2.88s3.93-4.52,4.52-6.41"/><path class="cls-6" d="m272.77,41.2s-4.48,2.3-5.9,3.97c-1.42,1.67-3.7.07-4.68-.85-.98-.92-1.94-1.81-1.35-2.88s3.93-4.52,4.52-6.41"/><path class="cls-11" d="m285.93,56.65c-.41-.35-.62-.57-.62-.57-1.67-1.77-3.93-3.37-6.48-5.08.19-.69.33-1.39.46-2.09,2.58,2.3,4.87,4.83,6.64,7.74Z"/><path class="cls-11" d="m277.69,47.54c-.19.77-.39,1.54-.6,2.3-.63-.42-1.27-.85-1.92-1.29.24-.83.45-1.66.65-2.48.64.48,1.26.97,1.87,1.47h0Z"/><path class="cls-11" d="m275.82,46.07c-.2.83-.41,1.65-.65,2.48-.52-.35-1.04-.71-1.56-1.08.28-.82.52-1.64.76-2.48.49.35.97.71,1.45,1.07h0Z"/><path class="cls-11" d="m274.37,45c-.23.83-.48,1.66-.76,2.48-2.12-1.49-4.29-3.13-6.38-5.05-.25-.23-.49-.46-.71-.68.19-.55.36-1.09.54-1.64,2.47,1.59,4.95,3.19,7.31,4.89Z"/><path class="cls-11" d="m267.05,40.1c-.18.54-.35,1.09-.54,1.64-.46-.45-.87-.89-1.25-1.32.17-.38.33-.76.5-1.14.43.27.86.55,1.29.83h0Z"/><path class="cls-11" d="m265.77,39.28c-.17.38-.33.76-.5,1.14-.84-.96-1.49-1.88-1.99-2.75.82.54,1.65,1.07,2.48,1.61h0Z"/><path class="cls-11" d="m279.3,48.9c-.13.7-.27,1.41-.46,2.09-.57-.38-1.15-.77-1.74-1.16.21-.76.41-1.53.6-2.3.55.45,1.08.9,1.61,1.36h-.01Z"/><path class="cls-6" d="m270,13.93c2.46,2.17,3.86,5.38,1.64,8.95-2.22,3.57-5.58,3.89-3.37,6.97,2.21,3.07,15.35-2.66,21.75,2.87,6.4,5.53,5.46,12.29,5.94,18.14s9.23,7.31,11.15,7.46c1.92.15,1.78,4.03-7.51,3.53-7.4-.4-12.06-3.82-13.66-5.2-5.03-8.31-14.26-13.49-22.65-18.97-2.07-3.66-1.42-6.51-1.13-8.94.4-3.4.52-3.23.04-4-.48-.77-5.76-2.61-3.27-8.69,2.48-6.07,8.62-4.29,11.08-2.12h-.01Z"/><path class="cls-6" d="m287.7,55.58s-4.48,2.3-5.9,3.97c-1.42,1.67-3.7.07-4.68-.85-.98-.92-1.94-1.81-1.35-2.88s3.93-4.52,4.52-6.41"/><path class="cls-6" d="m275.16,44.53s-4.48,2.3-5.9,3.97c-1.42,1.67-3.7.07-4.68-.85-.98-.92-1.94-1.81-1.35-2.88s3.93-4.52,4.52-6.41"/><path class="cls-11" d="m288.47,35.58c-.34.38.12,1.34,1.02,2.13s1.9,1.13,2.24.74c.34-.38-.12-1.34-1.02-2.13s-1.9-1.13-2.24-.74Z"/><path class="cls-11" d="m282.9,31.9c-.34.38.12,1.34,1.02,2.13s1.9,1.13,2.24.74c.34-.38-.12-1.34-1.02-2.13s-1.9-1.13-2.24-.74Z"/><path class="cls-11" d="m289.82,40.7c-.23.27.08.93.71,1.48.62.55,1.32.78,1.55.52.23-.27-.08-.93-.71-1.48-.62-.55-1.32-.78-1.55-.52Z"/><path class="cls-11" d="m286.77,40.79c-.23.27-.01.84.49,1.29.5.44,1.1.59,1.34.32.23-.26.01-.84-.49-1.28s-1.1-.59-1.34-.32h0Z"/><path class="cls-11" d="m285.8,37.16c-.23.27-.01.84.49,1.29.5.44,1.1.59,1.34.32.23-.27.01-.84-.49-1.29-.5-.44-1.1-.59-1.34-.32Z"/><path class="cls-11" d="m281.19,33.86c-.3.34.03,1.11.73,1.73s1.51.84,1.81.5-.03-1.11-.73-1.73-1.51-.84-1.81-.5Z"/><path class="cls-11" d="m260.33,19.84c-.38.75-.08,1.66.67,2.04s1.66.08,2.04-.67.08-1.66-.67-2.04-1.66-.08-2.04.67Z"/><path class="cls-12" d="m260.59,17.6c-.15.29-.03.65.26.8s.65.03.8-.26.03-.65-.26-.8-.65-.03-.8.26Z"/></g></g></g></g></svg>