<?xml version="1.0" encoding="UTF-8"?><svg id="_レイヤー_2" xmlns="http://www.w3.org/2000/svg" viewBox="0 0 42.12 49.37"><defs><style>.cls-1{stroke:#0053a5;stroke-linecap:round;stroke-linejoin:round;stroke-width:.69px;}.cls-1,.cls-2{fill:none;}.cls-3{fill:#f8b200;}.cls-4{fill:#0053a5;}.cls-2{opacity:.2;stroke:#f3f3f2;stroke-miterlimit:10;stroke-width:1.17px;}</style></defs><g id="rocket"><g id="bulb"><path class="cls-3" d="m39.44,27.82c5.26-8.71,2.52-19.99-6.11-25.21C24.7-2.6,13.44.23,8.18,8.94c-2.61,4.32-3.25,9.27-2.18,13.8.6,2.55.24,5.24-1.11,7.48l-.18.3c-2.8,4.64-1.31,10.66,3.32,13.46l.19.12c4.64,2.8,10.66,1.31,13.46-3.32l.02-.03c1.38-2.29,3.66-3.87,6.26-4.5,4.62-1.12,8.81-4.01,11.48-8.42Z"/><line class="cls-2" x1="8.48" y1="35.16" x2="17.43" y2="10.86"/><line class="cls-2" x1="13.58" y1="39.78" x2="32.64" y2="22.25"/><path class="cls-4" d="m-.13,34.47h20.01v6.5c0,3.67-2.98,6.65-6.65,6.65h-6.06c-4.03,0-7.3-3.27-7.3-7.3v-5.85H-.13Z" transform="translate(22.64 .8) rotate(31.13)"/><path class="cls-1" d="m16.7,11.59c.45,1.66,1.84,3,3.62,2.68.68-.12,1.32-.57,1.59-1.21.26-.64.01-1.49-.63-1.75-.64-.26-1.41.18-1.71.81-.29.63-.21,1.37,0,2.03.76,2.36,3.24,4.04,5.72,3.88,1.08-.07,2.36-.82,2.14-1.88-.23-1.07-1.97-1.12-2.59-.2-.62.91-.33,2.17.25,3.1.74,1.19,2.02,2.13,3.42,2.12,1.41,0,3.78-1.69,2.72-2.61-1.04-.91-2.92,1.58-2.39,2.85.53,1.27,2.94,1.87,3.97.96"/><path class="cls-3" d="m3.35,32.27c-.14-.18-.16-.43-.03-.64.17-.26.51-.35.77-.2.08.05,8.27,4.97,16.98,10.03.26.15.34.49.18.76-.16.27-.51.36-.77.21-8.72-5.07-16.91-9.99-16.99-10.04-.05-.03-.1-.07-.14-.12Z"/><path class="cls-3" d="m2.02,34.49c-.14-.18-.16-.43-.03-.64.17-.26.51-.35.77-.2.08.05,8.27,4.97,16.98,10.03.26.15.34.49.18.76-.16.27-.51.36-.77.21-8.72-5.07-16.91-9.99-16.99-10.04-.06-.03-.1-.07-.14-.12Z"/><path class="cls-3" d="m.86,36.56c-.14-.18-.16-.43-.03-.64.17-.26.51-.35.77-.2.08.05,8.27,4.97,16.98,10.03.26.15.34.49.18.76-.16.27-.51.36-.77.21C9.27,41.65,1.08,36.73,1,36.68c-.05-.03-.1-.07-.14-.12Z"/><path class="cls-3" d="m.12,38.83c-.14-.18-.16-.43-.03-.64.17-.26.51-.35.77-.2.08.05,7.17,4.55,15.88,9.62.26.15.34.49.18.76-.16.27-.51.36-.77.21C7.44,43.51.34,39,.26,38.95c-.06-.03-.1-.07-.14-.12Z"/></g></g></svg>