<?xml version="1.0" encoding="UTF-8"?><svg id="_レイヤー_2" xmlns="http://www.w3.org/2000/svg" viewBox="0 0 75.3 75.56"><defs><style>.cls-1{fill:#f8b200;}.cls-2{fill:#cd66a3;}.cls-3{fill:#e23b37;}.cls-4{fill:#31313b;}</style></defs><g id="rocket"><g id="dinosaur"><path class="cls-3" d="m56.74,54.62s4.1,2.87,7.13.66c3.03-2.21,5.15-5.06,4.76-6.1-.4-1.04-6.89-4.75-8.92-4.37-2.03.38-3.49,2.48-3.49,2.48,0,0,.4,4.67.52,7.34Z"/><path class="cls-3" d="m54.79,41.19s4.96,2.18,6.89-.15c1.93-2.33,3.46-6.01,3.46-7.4,0-1.4-5.3-2.42-7.71-2.84-2.41-.42-5.38,5.1-5.38,5.1,0,0,1.87,2.3,2.75,5.3Z"/><path class="cls-3" d="m48.39,31.82s5.63-2.78,6-4c.38-1.22-.1-7.36-.76-8.8-.67-1.44-7.3.46-8.67,1.5-1.37,1.03-2.33,7.75-2.19,8.16,0,0,3.4.89,5.62,3.15Z"/><path class="cls-3" d="m36.23,27.48s3.92-4.4,4.5-6.28c.58-1.89-2.34-6.39-4.41-7.21-2.07-.82-5.92,3.63-6.7,5.03-.78,1.41,2.05,8.72,2.05,8.72l4.55-.26Z"/><path class="cls-3" d="m24.62,28.33s1.58-4.45,1.31-5.4c-.27-.96-3.51-3.19-4.5-3.29-.99-.1-2.9,3.12-3.01,4.53-.1,1.41,3.03,4.38,3.03,4.38l3.16-.21Z"/><path class="cls-1" d="m40.9,60.98s-6.78,3.47-8.92,6c-2.14,2.52-5.59.11-7.08-1.28-1.49-1.39-2.93-2.74-2.05-4.36.89-1.62,5.95-6.84,6.83-9.69"/><path class="cls-1" d="m21.95,44.28s-6.78,3.47-8.92,6c-2.14,2.52-5.59.11-7.08-1.28-1.49-1.39-2.93-2.74-2.05-4.36.89-1.62,5.95-6.84,6.83-9.69"/><path class="cls-3" d="m41.84,67.63c-.61-.53-.93-.87-.93-.87-2.52-2.67-5.94-5.1-9.79-7.67.28-1.04.5-2.1.69-3.17,3.91,3.47,7.36,7.29,10.03,11.7Z"/><path class="cls-3" d="m29.38,53.87c-.29,1.17-.59,2.33-.9,3.47-.95-.63-1.93-1.28-2.91-1.95.36-1.25.67-2.5.98-3.75.96.73,1.91,1.47,2.83,2.22Z"/><path class="cls-3" d="m26.55,51.65c-.31,1.25-.61,2.5-.98,3.75-.78-.53-1.57-1.07-2.36-1.63.42-1.24.79-2.49,1.15-3.74.74.53,1.47,1.07,2.19,1.62Z"/><path class="cls-3" d="m24.36,50.03c-.35,1.26-.73,2.51-1.15,3.74-3.21-2.25-6.49-4.73-9.64-7.63-.38-.35-.73-.69-1.08-1.03.28-.83.55-1.65.82-2.48,3.73,2.4,7.48,4.82,11.05,7.4Z"/><path class="cls-3" d="m13.3,42.63c-.27.82-.53,1.65-.82,2.48-.69-.68-1.31-1.35-1.88-2,.25-.57.5-1.15.75-1.72.65.42,1.29.83,1.94,1.25Z"/><path class="cls-3" d="m11.36,41.38c-.25.57-.5,1.15-.75,1.72-1.27-1.46-2.26-2.84-3-4.15,1.24.81,2.5,1.62,3.76,2.43Z"/><path class="cls-3" d="m31.81,55.93c-.2,1.06-.41,2.12-.69,3.17-.86-.57-1.74-1.16-2.63-1.75.32-1.14.62-2.31.9-3.47.82.67,1.64,1.36,2.43,2.06Z"/><path class="cls-1" d="m17.75,3.07c3.72,3.28,5.84,8.13,2.48,13.53-3.36,5.4-8.43,5.88-5.09,10.53,3.34,4.64,23.2-4.02,32.87,4.34,9.67,8.36,8.25,18.57,8.98,27.41.72,8.84,13.95,11.05,16.85,11.28,2.9.23,2.69,6.08-11.35,5.33-11.18-.6-18.23-5.78-20.64-7.86-7.6-12.56-21.56-20.39-34.23-28.67-3.13-5.52-2.15-9.83-1.72-13.51.61-5.14.79-4.88.06-6.04-.73-1.16-8.7-3.95-4.95-13.13C4.75-2.91,14.03-.2,17.75,3.07Z"/><path class="cls-1" d="m44.51,66.01s-6.78,3.47-8.92,6c-2.14,2.52-5.59.11-7.08-1.28-1.49-1.39-2.93-2.74-2.05-4.36.89-1.62,5.95-6.84,6.83-9.69"/><path class="cls-1" d="m25.56,49.32s-6.78,3.47-8.92,6c-2.14,2.52-5.59.11-7.08-1.28-1.49-1.39-2.93-2.74-2.05-4.36.89-1.62,5.95-6.84,6.83-9.69"/><path class="cls-3" d="m45.67,35.79c-.51.58.18,2.02,1.54,3.22,1.36,1.2,2.88,1.7,3.39,1.13.51-.58-.18-2.02-1.54-3.22s-2.88-1.7-3.39-1.13Z"/><path class="cls-3" d="m37.26,30.23c-.51.58.18,2.02,1.54,3.22,1.36,1.2,2.88,1.7,3.39,1.13.51-.58-.18-2.02-1.54-3.22-1.36-1.2-2.88-1.7-3.39-1.13Z"/><path class="cls-3" d="m47.71,43.52c-.35.4.13,1.4,1.07,2.23.94.83,2,1.18,2.35.78.35-.4-.13-1.4-1.07-2.23-.94-.83-2-1.18-2.35-.78Z"/><path class="cls-3" d="m43.1,43.67c-.35.4-.02,1.27.74,1.94.76.67,1.67.89,2.02.49.35-.4.02-1.27-.74-1.94-.76-.67-1.67-.89-2.02-.49Z"/><path class="cls-3" d="m41.64,38.18c-.35.4-.02,1.27.74,1.94.76.67,1.67.89,2.02.49.35-.4.02-1.27-.74-1.94-.76-.67-1.67-.89-2.02-.49Z"/><path class="cls-3" d="m34.67,33.2c-.45.51.04,1.68,1.1,2.62,1.06.93,2.28,1.27,2.73.76.45-.51-.04-1.68-1.1-2.62-1.06-.93-2.28-1.27-2.73-.76Z"/><path class="cls-2" d="m3.15,12c-.57,1.13-.11,2.52,1.02,3.09s2.52.11,3.09-1.02c.57-1.13.11-2.52-1.02-3.09-1.13-.57-2.52-.11-3.09,1.02Z"/><path class="cls-4" d="m3.53,8.61c-.22.44-.04.98.4,1.21.44.22.98.04,1.21-.4.22-.44.04-.98-.4-1.21-.44-.22-.98-.04-1.21.4Z"/></g></g></svg>