<?xml version="1.0" encoding="UTF-8"?><svg id="_レイヤー_2" xmlns="http://www.w3.org/2000/svg" xmlns:xlink="http://www.w3.org/1999/xlink" viewBox="0 0 63.63 59.21"><defs><style>.cls-1{fill:none;}.cls-2{clip-path:url(#clippath);}.cls-3{fill:#0053a5;}.cls-4{fill:#009e71;}</style><clipPath id="clippath"><circle class="cls-1" cx="32.92" cy="27.8" r="27.25" transform="translate(-6.72 44.71) rotate(-63.29)"/></clipPath></defs><g id="rocket"><g id="earth"><circle class="cls-3" cx="32.92" cy="27.8" r="27.25" transform="translate(-6.72 44.71) rotate(-63.29)"/><g class="cls-2"><path class="cls-4" d="m41.93.59c-.91-.85-2.45-.66-3.42.11-.97.78-1.49,1.98-1.88,3.16-.39,1.18-.7,2.42-1.39,3.45-1.4,2.09-4.1,3-5.35,5.28-.38.7-.56,1.51-.43,2.3.34,1.95,2.17,2.45,3.74,2.23,1.12-.16,2.17-.62,3.26-.93,2.26-.64,4.7-.54,6.93.21,1.4.47,1.44,2.46.08,3.03-.65.27-1.28.6-1.86,1.02-1.57,1.14-2.68,3.13-2.22,5.01.32,1.3,1.31,2.31,2.25,3.26,2.09,2.09,4.19,4.18,6.28,6.27,1.26,1.25,2.76,2.61,4.64,2.07,1.19-.34,2.04-1.37,2.37-2.56.6-2.13-.26-4.22-1.21-6.11-.87-1.74-1.86-3.49-1.76-5.5.04-.79.28-1.56.74-2.2,1.39-1.91,3.48-1.24,5.35-1.52,3.13-.47,5.28-3.69,5.54-6.85.26-3.16-.94-6.24-2.25-9.13"/><path class="cls-4" d="m0,25.19c.31,2.79.63,5.64,1.88,8.15,1.24,2.51,3.61,4.66,6.41,4.83,2.07.13,4.04-.81,6.07-1.21,2.03-.4,4.55-.04,5.49,1.81.69,1.36.27,2.99.23,4.51-.14,5.13,4.09,9.19,7.98,12.53,1.3,1.12,2.64,2.26,4.23,2.91,1.59.64,3.52.72,4.95-.24,1.35-.9,2.02-2.57,2.12-4.19.1-1.62-.3-3.22-.7-4.79-.82-3.26-1.64-6.51-2.46-9.77-.72-2.87-1.92-6.23-4.81-6.91-2.25-.53-4.57.89-6.85.55-1.69-.26-3.18-1.56-3.65-3.21-.47-1.65.11-3.54,1.41-4.65.79-.67,1.8-1.06,2.58-1.75.78-.69,1.27-1.92.67-2.77-1.09-1.53-3.91.06-5.26-1.24-.64-.62-.65-1.67-.33-2.5s.88-1.55,1.28-2.34c1.59-3.15.27-7.15-2.2-9.67-2.47-2.53-5.84-3.91-9.12-5.23"/></g></g></g></svg>