<?xml version="1.0" encoding="UTF-8"?><svg id="_レイヤー_2" xmlns="http://www.w3.org/2000/svg" viewBox="0 0 36.59 36.35"><defs><style>.cls-1{fill:#0053a5;}.cls-2{fill:#e23b37;}</style></defs><g id="rocket"><g id="flower1"><path class="cls-2" d="m35.24,14.52c3.3-2.39-.22-3.99-2.66-4.15-2.54-.16-5.35.52-7.78.11-.2-1.83,5.24-8.3,2.29-9.48-1.38-.55-4.15,1.85-5.01,2.7-1.22,1.21-1.73,3.46-3.21,4.29-1.47-1.54-3.12-9.42-6.68-7.77-1.99.92-1.52,8.7-.54,9.07l.36.18c-1.69,0-3.49.18-5.17,0-1.31-.13-4.16-1.1-5.17.08-2.3,2.69,5.08,7.42,6.48,8.67-.89,1.47-11.44,5.61-7.1,7.07,1.35.45,3.75-.03,5.1-.17,1.79-.19,3.98-1.72,5.66-1.44.33,3.51-2.24,6.96-2.64,10.54-.12,1.09.99,1.87,1.97,1.39,2.15-1.06,3.79-4.48,4.82-5.98,1.17-1.7,1.69-1.4,2.71.1,1,1.47,1.91,2.94,2.97,4.37.69.92,1.35,2.58,2.83,2.16,1.16-.33,1.5-2.36,1.58-3.41.13-1.64-1.32-5.65.27-6.67,1.63-1.05,5.61.96,7.32,1.04,3.75.18,1.71-2.96.5-4.68-.93-1.32-1.69-2.13-3.06-3.02-1.1-.71-2.79-1.08-1.89-2.43.99-1.48,4.57-1.52,6.06-2.59Z"/><path class="cls-1" d="m22.76,15.12c-1.42-1.5-3.81-2.13-5.79-1.31-2.02.84-2.63,2.2-2.37,3.79-.09.41-.13.84-.11,1.27.18,3.29,4.21,5.02,6.92,3.44,2.25-1.31,3.26-5.17,1.35-7.19Z"/></g></g></svg>