<?xml version="1.0" encoding="UTF-8"?><svg id="_レイヤー_2" xmlns="http://www.w3.org/2000/svg" viewBox="0 0 46.64 41.61"><defs><style>.cls-1{fill:#009e71;}.cls-2{fill:#31313b;}</style></defs><g id="rocket"><g id="grass"><path class="cls-1" d="m4.42,26.49c-.68-4.87,3.94-5.86,7.72-6.34C8.29,19.88.4,18.71.03,14.04c-.54-6.7,7.59-3.11,11.06-2.52C7.87,9.54,3.36-.16,10.61,0c4.15.09,10.46,6.22,12.11,9.61-2.51-5.82,3.68-7.03,7.1-3.32,2.64,2.86,4.21,5.92,5.79,9.53-.61-3.45,3.43-5.99,6.66-5.2,2.89.71,3.78,3.72,3.98,6.49.29,3.91-.91,7.93-.67,11.75.06,1.04.41,2.08.69,3.11l-.05-.39c.03.16.05.32.07.48.24.89.43,1.76.32,2.61l-.05-.4c.17,2.5-.36,4.48-3.42,6.2-3.31,1.86-7.82.91-11.44.71-3.97-.22-8.29.03-12.23-.64-4.82-.82-8.35-6.68-2.71-9.24-4.17.79-11.59.65-12.35-4.82Z"/><path class="cls-2" d="m22.37,19.15c-.18.02-.37-.02-.56-.15-3.19-2.05-7.23-1.92-10.67-3.39-1.06-.45-.42-2.13.64-1.67,2.2.94,4.59,1.27,6.88,1.88-1.76-1.62-3.5-3.25-5.32-4.82-.86-.75.18-2.21,1.05-1.45,5.37,4.66,10.46,9.33,16.14,13.59-.35-1.24-1.28-3.06-1.56-3.76-.66-1.62-1.31-3.28-2.17-4.81-.56-1.01,1.08-1.73,1.64-.73,1.09,1.94,1.9,4.07,2.7,6.14.43,1.11,1.51,3.16,1.24,4.51,2.05,1.48,4.34,3.11,6.36,4.92-.27-2.64.08-5.39-.29-8.03-.16-1.14,1.61-1.41,1.77-.27.5,3.51-.43,7.34.89,10.7.8.93,1.5,1.91,2.03,2.94.53,1.03-1.11,1.75-1.64.73-.27-.53-.61-1.06-.97-1.57-.06.03-.11.07-.19.09-2.26.58-4.5.35-6.8.45-2.7.12-5.4.56-8.09.78-1.14.09-1.42-1.68-.27-1.77,2.7-.21,5.39-.64,8.09-.78,2.03-.1,4.04.07,6.03-.29-2.08-2.32-4.91-4.43-7.6-6.29-.08.03-.15.07-.24.08-4.66.59-9.28-.55-13.94-.52-1.15,0-.94-1.77.2-1.78,3.92-.02,7.81.82,11.72.67-.73-.49-1.42-.97-2.07-1.43-1.75-1.24-3.4-2.59-5.01-3.98Z"/></g></g></svg>