<?xml version="1.0" encoding="UTF-8"?><svg id="_レイヤー_2" xmlns="http://www.w3.org/2000/svg" viewBox="0 0 856 108.62"><defs><style>.cls-1{fill:none;stroke:#39a759;stroke-linecap:round;stroke-miterlimit:10;stroke-width:3px;}.cls-2{fill:#f6ca4c;}.cls-3{fill:#fff;}.cls-4{fill:#39a759;}</style></defs><g id="rocket"><g id="ground"><path class="cls-3" d="m1.29,44.12s18.31-24.38,98-26c37.59-.77,70.69,1.45,109,9,78.56,15.48,155.28,30.6,186,35,82.35,11.79,103.11-16.8,242-41C687.57,12.19,761.89,2.15,854.29.12v108c-284.67,0-567.83.5-852.5.5l-.5-64.5Z"/><path class="cls-1" d="m1.5,45.5s18.31-24.38,98-26c37.59-.77,70.69,1.45,109,9,78.56,15.48,155.28,30.6,186,35,82.35,11.79,103.11-16.8,242-41,51.28-8.93,125.6-18.97,218-21"/><path class="cls-4" d="m193,72.01c-.34-.09-.74.11-.82.47-.38,1.59-.76,3.17-1.13,4.76-.08.35.11.72.47.82.34.09.74-.11.82-.47.38-1.59.76-3.17,1.13-4.76.08-.35-.11-.72-.47-.82Z"/><path class="cls-4" d="m188.65,72.31c-.36.02-.67.29-.67.67v4.1c0,.35.31.69.67.67.36-.02.67-.29.67-.67v-4.1c0-.35-.31-.68-.67-.67Z"/><path class="cls-4" d="m153.46,61.85c-.6-1.34-1.01-2.83-1.22-4.31-.05-.36-.51-.55-.82-.47-.39.11-.52.46-.47.82.22,1.61.69,3.15,1.35,4.63.15.33.63.41.92.24.34-.2.39-.58.24-.92Z"/><path class="cls-4" d="m156.78,63.08c-.82-2.62-1.13-5.34-.94-8.08.06-.86-1.28-.86-1.34,0-.2,2.84.14,5.71.99,8.43.26.82,1.55.47,1.29-.36Z"/><path class="cls-4" d="m159.69,58.8c-.34-.08-.74.1-.82.47-.23,1.03-.45,2.05-.68,3.08-.07.34.1.74.47.82.34.08.74-.1.82-.47.23-1.03.45-2.05.68-3.08.07-.34-.1-.74-.47-.82Z"/><path class="cls-4" d="m267.02,57.47c-.39.02-.64.29-.67.67-.12,1.48-.24,2.96-.35,4.44-.03.35.33.68.67.67.39-.02.64-.29.67-.67.12-1.48.24-2.96.35-4.44.03-.35-.33-.68-.67-.67Z"/><path class="cls-4" d="m270.31,59.2c-.38-.09-.69.12-.82.47-.56,1.48-1.12,2.97-1.69,4.45-.12.33.14.75.47.82.38.09.69-.12.82-.47l1.69-4.45c.12-.33-.14-.75-.47-.82Z"/><path class="cls-4" d="m47.27,40.03c.39.02.64.29.67.67.12,1.48.24,2.96.35,4.44.03.35-.33.68-.67.67-.39-.02-.64-.29-.67-.67-.12-1.48-.24-2.96-.35-4.44-.03-.35.33-.68.67-.67Z"/><path class="cls-4" d="m43.98,41.76c.38-.09.69.12.82.47.56,1.48,1.12,2.97,1.69,4.45.12.33-.14.75-.47.82-.38.09-.69-.12-.82-.47l-1.69-4.45c-.12-.33.14-.75.47-.82Z"/><path class="cls-4" d="m326.5,75.16c-.24-.19-.46-.4-.67-.63-.05-.06-.1-.11-.15-.17,0,0-.02-.02-.03-.04,0-.01-.03-.04-.03-.04-.09-.13-.18-.26-.27-.39-.08-.13-.15-.26-.22-.39-.03-.07-.07-.13-.1-.2,0,0-.02-.05-.04-.08,0,0,0,0,0-.01-.12-.29-.21-.59-.28-.9-.07-.34-.49-.57-.82-.47-.36.12-.55.46-.47.82.29,1.34,1.06,2.59,2.13,3.45.27.22.68.29.95,0,.22-.24.29-.71,0-.95Z"/><path class="cls-4" d="m329.29,73.37c-1.19-1.36-1.93-3.05-2.21-4.83-.05-.36-.5-.55-.82-.47-.38.1-.52.46-.47.82.31,2.01,1.22,3.89,2.55,5.42.24.27.7.24.95,0,.27-.27.24-.67,0-.95Z"/><path class="cls-4" d="m332.47,70.77c-.08-.14-.24-.27-.4-.31-.32-.07-.77.1-.82.47-.13.91-.26,1.82-.39,2.73-.03.19-.03.35.07.52.08.14.24.27.4.31.32.07.77-.1.82-.47.13-.91.26-1.82.39-2.73.03-.19.03-.35-.07-.52Z"/><path class="cls-4" d="m213.18,52.97c-.45-.91-.91-1.82-1.36-2.73-.16-.31-.63-.43-.91-.24-.32.21-.41.58-.24.92.45.91.91,1.82,1.36,2.73.16.31.63.43.92.24.32-.21.41-.58.24-.91Z"/><path class="cls-4" d="m215.14,46.11c-.04-.36-.28-.67-.67-.67-.33,0-.71.31-.67.67.24,2.17.48,4.35.73,6.52.04.36.28.67.67.67.33,0,.71-.31.67-.67-.24-2.17-.48-4.35-.73-6.52Z"/><path class="cls-4" d="m108.16,58.61c-.39-.09-.68.12-.82.47-.45,1.14-.9,2.28-1.35,3.42-.13.33.14.75.47.82.39.09.68-.12.82-.47.45-1.14.9-2.28,1.35-3.42.13-.33-.14-.75-.47-.82Z"/><path class="cls-4" d="m104.24,57.22c-.36.02-.67.29-.67.67v2.73c0,.35.31.68.67.67.36-.02.67-.29.67-.67v-2.73c0-.35-.31-.68-.67-.67Z"/><path class="cls-4" d="m576.98,69.04c.34-.09.74.11.82.47.38,1.58.76,3.17,1.13,4.76.08.35-.11.72-.47.82-.34.09-.74-.11-.82-.47-.38-1.59-.76-3.17-1.13-4.76-.08-.35.11-.72.47-.82Z"/><path class="cls-4" d="m581.33,69.34c.36.02.67.29.67.67v4.1c0,.35-.31.68-.67.67-.36-.02-.67-.29-.67-.67v-4.1c0-.35.31-.69.67-.67Z"/><path class="cls-4" d="m795.42,75.5c.6-1.34,1.01-2.83,1.22-4.31.05-.36.51-.55.82-.47.39.11.52.46.47.82-.22,1.61-.69,3.15-1.35,4.63-.15.33-.63.41-.92.24-.34-.2-.39-.58-.24-.92Z"/><path class="cls-4" d="m792.11,76.73c.82-2.62,1.13-5.34.94-8.08-.06-.86,1.28-.86,1.34,0,.2,2.84-.14,5.71-.99,8.44-.26.82-1.55.47-1.29-.36Z"/><path class="cls-4" d="m789.2,72.45c.34-.08.74.1.82.47.23,1.03.45,2.05.68,3.08.07.34-.1.74-.47.82-.34.08-.74-.1-.82-.47-.23-1.03-.45-2.05-.68-3.08-.07-.34.1-.74.47-.82Z"/><path class="cls-4" d="m408.84,72.85c.39.02.64.29.67.67.12,1.48.24,2.96.35,4.44.03.35-.33.68-.67.67-.39-.02-.64-.29-.67-.67-.12-1.48-.24-2.96-.35-4.44-.03-.35.33-.68.67-.67Z"/><path class="cls-4" d="m405.55,74.58c.38-.09.69.12.82.47.56,1.48,1.12,2.97,1.69,4.45.12.33-.14.75-.47.82-.38.09-.69-.12-.82-.47l-1.69-4.45c-.12-.33.14-.75.47-.82Z"/><path class="cls-4" d="m699.76,26.75c-.39.02-.64.29-.67.67-.12,1.48-.24,2.96-.35,4.44-.03.35.33.68.67.67.39-.02.64-.29.67-.67.12-1.48.24-2.96.35-4.44.03-.35-.33-.68-.67-.67Z"/><path class="cls-4" d="m703.04,28.48c-.38-.09-.69.12-.82.47-.56,1.48-1.12,2.97-1.69,4.45-.12.33.14.75.47.82.38.09.69-.12.82-.47l1.69-4.45c.12-.33-.14-.75-.47-.82Z"/><path class="cls-4" d="m527.35,71.3c.24-.19.46-.4.67-.63.05-.06.1-.11.15-.17,0,0,.02-.02.03-.04,0-.01.03-.04.03-.04.09-.13.18-.26.27-.39.08-.13.15-.26.22-.39.03-.07.07-.13.1-.2,0,0,.02-.05.04-.08,0,0,0,0,0-.01.12-.29.21-.59.28-.9.07-.34.49-.57.82-.47.36.12.55.46.47.82-.29,1.34-1.06,2.59-2.13,3.45-.27.22-.68.29-.95,0-.22-.24-.29-.71,0-.95Z"/><path class="cls-4" d="m524.55,69.51c1.19-1.36,1.93-3.05,2.21-4.83.05-.36.5-.55.82-.47.38.1.52.46.47.82-.31,2.01-1.22,3.89-2.55,5.42-.24.27-.7.24-.95,0-.27-.27-.24-.67,0-.95Z"/><path class="cls-4" d="m519.07,72.1c1.19-1.36,1.93-3.05,2.21-4.83.05-.36.5-.55.82-.47.38.1.52.46.47.82-.31,2.01-1.22,3.89-2.55,5.42-.24.27-.7.24-.95,0-.27-.27-.24-.67,0-.95Z"/><path class="cls-4" d="m817.41,13.63c.45-.91.91-1.82,1.36-2.73.16-.31.63-.43.92-.24.32.21.41.58.24.92-.45.91-.91,1.82-1.36,2.73-.16.31-.63.43-.92.24-.32-.21-.41-.58-.24-.92Z"/><path class="cls-4" d="m815.45,6.77c.04-.36.28-.67.67-.67.33,0,.71.31.67.67-.24,2.17-.48,4.35-.73,6.52-.04.36-.28.67-.67.67-.33,0-.71-.31-.67-.67.24-2.17.48-4.35.73-6.52Z"/><path class="cls-4" d="m669.74,62.57c.39-.09.68.12.82.47.45,1.14.9,2.28,1.35,3.42.13.33-.14.75-.47.82-.39.09-.68-.12-.82-.47-.45-1.14-.9-2.28-1.35-3.42-.13-.33.14-.75.47-.82Z"/><path class="cls-4" d="m673.67,61.18c.36.02.67.29.67.67v2.73c0,.35-.31.68-.67.67-.36-.02-.67-.29-.67-.67v-2.73c0-.35.31-.68.67-.67Z"/><path class="cls-2" d="m73.51,69.44c5.09-4.1.27-7.57-3.1-3.44-1.27-7.98-7.99-2.62-3.82,2.79-5.68-.5-7.27,5.09.58,3.59-1.87,6.59,4.35,7.06,3.91.44,5.09,2.83,8.94-1.45,2.42-3.38Zm.36-4.26c2.06.97-.54,2.76-1.69,3.9-.13-.78-.74-1.38-1.44-1.59.79-1.01,1.75-2.25,3.12-2.31Zm-3.63,3.66c.94.16.57,1.81-.24,1.95-.76-.02-1.39-1.16-.7-1.69.37.17.63-.15.94-.26Zm-2.68-5.77c1.73.32,1.54,3.24,2.03,4.46-.23.09-.44.24-.62.46-.53-.02-.9.21-1.12.57-1.12-1.37-2.53-4.56-.28-5.49Zm-.2,8.07c-5.69,1.7-5.69-2.05.29-1,.05.26.14.52.25.75-.18.05-.37.14-.54.25Zm2.62,2.83c0,.74-.63,3.19-1.67,2.26,0,0,.03.04.05.05-.69-1.11-.24-3.34.25-4.56.44.33.91.52,1.35.5-.05.56.06,1.28.02,1.75Zm1.32-2.3c.39-.34.69-.81.84-1.34,5.54.85,4.01,3.8-.84,1.34Z"/><path class="cls-2" d="m239.93,63.58c.86-7.36-9.06-5.6-7.11,1.25-3.96-.8-5.31,5.18.14,5.79-2.66,4.57,2.91,7.54,5.11,2.62,3.19,3.74,8.7-1.15,4.6-4.48,7.96-1.72,1.76-9.15-2.74-5.18Zm-2.26,6.96c-.6,0-1.68-.19-1.59-.79.63-4.22,5.41-.44,1.59.79Zm.28-4.46c-.07.17-.06.32,0,.45-.43.07-.9.26-1.42.61-8.41-5.08,5.62-12.58,1.41-1.06Zm-4.08.4c.39.48.97.75,1.41,1.15-.34.5-.48,1.15-.5,1.71-5.57,1.32-5.57-5.25-.91-2.86Zm-.31,7.29c-.65-1.75.88-2.68,1.46-3.49.45.85,1.45,1.42,2.43,1.37-.18,1.66-2.7,4.52-3.88,2.12Zm5-2.3c1.39-.46,1.92-1.75,1.8-2.9,5.71,3-.36,7.48-1.8,2.9Zm2.5-3.67c-.35-.04-.68.07-.8.27-.2-.69-.65-1.26-1.31-1.48.02-.02.03-.05.04-.08,3.74-6.97,10.62.78,2.07,1.29Z"/><path class="cls-2" d="m717.46,64.82c5.89-2.52,1.36-6.85-1.81-3.8,1.09-7.62-7.65-5.14-5.14,1.63-4.15-1.17-4.03,3.23-.14,3.76-5.61,4.31.4,9.38,4.37,1.6,3.53,6.12,8.45,1.11,2.72-3.19Zm1.13-3.68c2.1,1.72-2.17,2.4-2.75,3.47-.13-.52-.41-1-.85-1.27.71-.86,2.4-2.67,3.59-2.2Zm-4.6,3.08c.99-.02,1.15,1.64.28,1.9-1.12-.06-1.51-1.65-.28-1.9Zm-.01-1.37c-.02.09-.03.17-.02.25-.45.05-.97.02-1.27.45-5.21-5.35,4.49-10.11,1.29-.7Zm-5.46,1.18c.46-1.18,2.75.06,3.43.7-.03.22.15.56.28.79-.96,0-3.47-.4-3.72-1.49Zm1.3,6.91c-1.48-1,.15-2.97,1.24-3.62.38-.25,1.32-.64,1.6-1.06.29.45.66.85,1.21.94-.84,1.53-2.29,3.98-4.04,3.74Zm5.49-4.1c.48-.43.67-1.15.61-1.85,4.99,3.43,3.07,7.74-.61,1.85Z"/><path class="cls-2" d="m479.58,73.42c3.13-3.9-1.58-5.22-2.64-1.95-2.05-5.64-7.15-.73-2.94,3.01-3.29.72-1.59,3.71,1.28,2.64-2.28,5.03,3.72,6.31,3.59-.5,4.68,2.92,6.22-2.33.7-3.2Zm-.57-2.95c2.08.42-.61,2.45-.62,3.4-.28-.31-.65-.53-1.05-.56.18-.85.67-2.72,1.67-2.83Zm-2.04,3.81c.67-.38,1.39.71.89,1.21-.79.37-1.65-.58-.89-1.21Zm-.51-.94c.02.07.04.13.08.18-.3.2-.66.37-.71.78-5.55-1.77-.62-8.61.63-.95Zm-3.33,2.81c-.12-.98,1.92-.97,2.62-.78.06.16.31.33.49.44-.66.35-2.53,1-3.11.34Zm3.43,4.28c-1.38-.15-.99-2.1-.48-2.94.17-.31.68-.92.71-1.32.36.2.77.34,1.17.2-.02,1.36-.12,3.58-1.41,4.06Zm2.28-4.84c.17-.47.04-1.04-.26-1.5,4.69.53,4.95,4.2.26,1.5Z"/></g></g></svg>