<?xml version="1.0" encoding="UTF-8"?><svg id="_レイヤー_2" xmlns="http://www.w3.org/2000/svg" viewBox="0 0 109.41 83.17"><defs><style>.cls-1{fill:#f8b200;}.cls-2{fill:#0053a5;}.cls-3{fill:#009e71;}.cls-4{fill:#cd66a3;}.cls-5{fill:#e23b37;}</style></defs><g id="rocket"><g id="rainbow"><path class="cls-5" d="m77.91,8.82c16.56,11.03,19.93,27.69,19.7,39.93-.11,5.44-1.66,11.55-2.51,15.52-.61.03-1.22.06-1.84.09-1.38.08-2.77.21-4.15.36.86-3.79,1.68-8.74,1.76-14.19.24-15.69-5.4-27.88-16.79-36.24-20.95-15.38-39.37-5.99-54.63,3.84-.33-.98-.66-1.95-1.01-2.91-.33-.91-.7-1.79-1.09-2.66,16.15-10.37,35.74-20.25,60.56-3.74Z"/><path class="cls-3" d="m75.33,12.9c15.36,10.62,17.9,26.74,17.32,38.41-.24,4.96-1.05,9.52-1.95,13.25-1.96.18-3.92.43-5.88.72.91-3.58,1.79-8.16,2.01-13.14.68-14.94-4.5-26.34-15.41-33.88-18.81-13-36.06-5.35-50.68,3.84-.58-1.77-1.16-3.54-1.77-5.3,15.64-9.79,35.24-18.48,56.35-3.89Z"/><path class="cls-4" d="m72.53,17.25c14.69,9.47,16.69,24.68,15.78,35.76-.37,4.46-1.21,8.61-2.14,12.06-1.92.27-3.84.57-5.75.89.94-3.34,1.84-7.48,2.19-11.95,1.11-14.21-3.61-24.82-14.04-31.54-16.69-10.76-32.6-4.7-46.43,3.66-.58-1.62-1.13-3.26-1.66-4.9,15.01-9.06,33.19-16.15,52.06-3.99Z"/><path class="cls-2" d="m68.38,22.33c14.28,8.77,15.95,23.41,14.83,34.15-.35,3.34-.97,6.49-1.69,9.31-.42.07-.84.13-1.26.2-1.46.25-2.92.5-4.38.76.72-2.74,1.36-5.86,1.69-9.15,1.37-13.76-3.07-23.89-13.2-30.11-14.36-8.82-28.38-4.91-40.97,1.95-.42-1.02-.8-2.05-1.17-3.05-.19-.52-.36-1.04-.54-1.56,13.98-7.73,30.22-12.62,46.7-2.5Z"/><path class="cls-1" d="m105.09,83.03c.92-.81,4.01-6.46,4.29-9.53.28-3.08-1.23-6.36-3.97-7.79-2.74-1.43-5.6-.76-7.21,1.88.97-2.59,2.42-5.93,2.15-9.13-.35-4.2-2.58-6.33-5.63-7.32-2.59-.84-5.9-.07-7.95,1.73-2.05,1.8-3.4,4.25-4.67,6.66,1.44-2.2.8-5.41-1.19-7.12-1.99-1.72-5.03-1.95-7.41-.84-2.38,1.11-4.1,3.41-4.81,5.94.27-3.1-2.85-5.85-5.96-5.69s-5.76,2.75-6.58,5.76-1.06,8.42-.38,9.83c.55,1.13,45.52,17.48,49.32,15.64Z"/><path class="cls-1" d="m49.55,40.82c.93-.8,4.06-6.42,4.37-9.5.31-3.07-1.17-6.37-3.9-7.82-2.73-1.46-5.59-.81-7.22,1.82.99-2.59,2.47-5.91,2.23-9.12-.31-4.2-2.52-6.36-5.57-7.37-2.59-.86-5.9-.12-7.96,1.66-2.06,1.78-3.43,4.22-4.73,6.62,1.45-2.19.85-5.4-1.13-7.13-1.97-1.73-5.01-2-7.4-.91-2.39,1.09-4.12,3.38-4.86,5.9.29-3.1-2.8-5.88-5.92-5.74-3.11.14-5.79,2.7-6.62,5.7C0,17.93-.3,23.35.37,24.76c.54,1.14,45.37,17.87,49.18,16.06Z"/></g></g></svg>