<?xml version="1.0" encoding="UTF-8"?><svg id="_レイヤー_2" xmlns="http://www.w3.org/2000/svg" viewBox="0 0 98.16 77.96"><defs><style>.cls-1{fill:#f3f3f2;}.cls-2{fill:#f8b200;}.cls-3{fill:#0053a5;}.cls-4{fill:#009e71;}.cls-5{fill:#e23b37;}</style></defs><g id="rocket"><path class="cls-4" d="m42.25,20.7s-16.21-7.51-23.02.53c-6.81,8.04-7.46,9.53-6.52,12.12,1.23,3.4,15.19,2.01,15.19,2.01l14.35-14.66Z"/><path class="cls-4" d="m61.06,48.08s2.4,17.71-7.29,21.85c-9.69,4.14-11.31,4.32-13.51,2.66-2.88-2.18,2.56-15.1,2.56-15.1l18.24-9.4Z"/><path class="cls-5" d="m89.2,25.52c5.8-6.76,11.59-16.27,7.69-21.56-4.84-6.57-15.97-3.69-24.82-.46,4.17,8.48,10.08,15.86,17.12,22.02Z"/><path class="cls-5" d="m25.19,37.16s-20.17,5.6-21.31,13.92c-1.13,8.32,8.61,5.53,8.61,5.53,0,0-16.38,7.41-11.63,15.79,4.75,8.38,15.74-2.58,15.74-2.58,0,0-1.02,2.38,1.98,6.67,5.31,7.61,22.38-16.73,22.38-16.73l-15.77-22.6Z"/><path class="cls-2" d="m27.8,40.89s-13.85,3.84-14.63,9.56c-.78,5.71,5.91,3.8,5.91,3.8,0,0-11.25,5.09-7.99,10.84,3.26,5.75,10.81-1.77,10.81-1.77,0,0-.7,1.63,1.35,4.58,3.65,5.23,15.37-11.48,15.37-11.48l-10.83-15.52Z"/><path class="cls-3" d="m72.08,3.5C33.54,20.99,25.19,37.16,25.19,37.16c1.77,14.11,15.77,22.6,15.77,22.6-1.02.71,17.96-.23,48.24-34.24-7.04-6.16-12.95-13.54-17.12-22.02Z"/><path class="cls-4" d="m63.44,42.3c-4.62,3.23-12.34,2.9-15.93-2.24-3.59-5.14-3.93-12.42,1.9-16.48,4.62-3.23,11.79-2.31,15.38,2.83,3.59,5.14,3.27,12.67-1.35,15.9Z"/><path class="cls-1" d="m63.17,27.66c-1.76-2.53-4.59-3.8-7.39-3.83-1.83-.02-3.64.49-5.13,1.53-4.74,3.3-4.47,9.23-1.55,13.41,2.38,3.42,7.02,4.22,10.68,2.97.82-.28,1.59-.66,2.28-1.14,3.76-2.62,4.02-8.76,1.1-12.94Z"/></g></svg>